%TF.GenerationSoftware,KiCad,Pcbnew,5.1.8+dfsg1-1~bpo10+1*%
%TF.CreationDate,2020-11-13T08:11:59-08:00*%
%TF.ProjectId,samd11d14_usb-c,73616d64-3131-4643-9134-5f7573622d63,B*%
%TF.SameCoordinates,Original*%
%TF.FileFunction,Paste,Bot*%
%TF.FilePolarity,Positive*%
%FSLAX46Y46*%
G04 Gerber Fmt 4.6, Leading zero omitted, Abs format (unit mm)*
G04 Created by KiCad (PCBNEW 5.1.8+dfsg1-1~bpo10+1) date 2020-11-13 08:11:59*
%MOMM*%
%LPD*%
G01*
G04 APERTURE LIST*
%ADD10R,1.060000X0.650000*%
G04 APERTURE END LIST*
%TO.C,R106*%
G36*
G01*
X113696000Y-108728500D02*
X113696000Y-109203500D01*
G75*
G02*
X113458500Y-109441000I-237500J0D01*
G01*
X112883500Y-109441000D01*
G75*
G02*
X112646000Y-109203500I0J237500D01*
G01*
X112646000Y-108728500D01*
G75*
G02*
X112883500Y-108491000I237500J0D01*
G01*
X113458500Y-108491000D01*
G75*
G02*
X113696000Y-108728500I0J-237500D01*
G01*
G37*
G36*
G01*
X115446000Y-108728500D02*
X115446000Y-109203500D01*
G75*
G02*
X115208500Y-109441000I-237500J0D01*
G01*
X114633500Y-109441000D01*
G75*
G02*
X114396000Y-109203500I0J237500D01*
G01*
X114396000Y-108728500D01*
G75*
G02*
X114633500Y-108491000I237500J0D01*
G01*
X115208500Y-108491000D01*
G75*
G02*
X115446000Y-108728500I0J-237500D01*
G01*
G37*
%TD*%
D10*
%TO.C,U101*%
X114978000Y-111826000D03*
X114978000Y-113726000D03*
X117178000Y-113726000D03*
X117178000Y-112776000D03*
X117178000Y-111826000D03*
%TD*%
%TO.C,R104*%
G36*
G01*
X114791500Y-100488000D02*
X114316500Y-100488000D01*
G75*
G02*
X114079000Y-100250500I0J237500D01*
G01*
X114079000Y-99675500D01*
G75*
G02*
X114316500Y-99438000I237500J0D01*
G01*
X114791500Y-99438000D01*
G75*
G02*
X115029000Y-99675500I0J-237500D01*
G01*
X115029000Y-100250500D01*
G75*
G02*
X114791500Y-100488000I-237500J0D01*
G01*
G37*
G36*
G01*
X114791500Y-102238000D02*
X114316500Y-102238000D01*
G75*
G02*
X114079000Y-102000500I0J237500D01*
G01*
X114079000Y-101425500D01*
G75*
G02*
X114316500Y-101188000I237500J0D01*
G01*
X114791500Y-101188000D01*
G75*
G02*
X115029000Y-101425500I0J-237500D01*
G01*
X115029000Y-102000500D01*
G75*
G02*
X114791500Y-102238000I-237500J0D01*
G01*
G37*
%TD*%
%TO.C,R105*%
G36*
G01*
X117444000Y-98281500D02*
X117444000Y-97806500D01*
G75*
G02*
X117681500Y-97569000I237500J0D01*
G01*
X118256500Y-97569000D01*
G75*
G02*
X118494000Y-97806500I0J-237500D01*
G01*
X118494000Y-98281500D01*
G75*
G02*
X118256500Y-98519000I-237500J0D01*
G01*
X117681500Y-98519000D01*
G75*
G02*
X117444000Y-98281500I0J237500D01*
G01*
G37*
G36*
G01*
X115694000Y-98281500D02*
X115694000Y-97806500D01*
G75*
G02*
X115931500Y-97569000I237500J0D01*
G01*
X116506500Y-97569000D01*
G75*
G02*
X116744000Y-97806500I0J-237500D01*
G01*
X116744000Y-98281500D01*
G75*
G02*
X116506500Y-98519000I-237500J0D01*
G01*
X115931500Y-98519000D01*
G75*
G02*
X115694000Y-98281500I0J237500D01*
G01*
G37*
%TD*%
%TO.C,C103*%
G36*
G01*
X113267500Y-102520000D02*
X112792500Y-102520000D01*
G75*
G02*
X112555000Y-102282500I0J237500D01*
G01*
X112555000Y-101707500D01*
G75*
G02*
X112792500Y-101470000I237500J0D01*
G01*
X113267500Y-101470000D01*
G75*
G02*
X113505000Y-101707500I0J-237500D01*
G01*
X113505000Y-102282500D01*
G75*
G02*
X113267500Y-102520000I-237500J0D01*
G01*
G37*
G36*
G01*
X113267500Y-104270000D02*
X112792500Y-104270000D01*
G75*
G02*
X112555000Y-104032500I0J237500D01*
G01*
X112555000Y-103457500D01*
G75*
G02*
X112792500Y-103220000I237500J0D01*
G01*
X113267500Y-103220000D01*
G75*
G02*
X113505000Y-103457500I0J-237500D01*
G01*
X113505000Y-104032500D01*
G75*
G02*
X113267500Y-104270000I-237500J0D01*
G01*
G37*
%TD*%
%TO.C,C102*%
G36*
G01*
X113046500Y-113126000D02*
X113521500Y-113126000D01*
G75*
G02*
X113759000Y-113363500I0J-237500D01*
G01*
X113759000Y-113938500D01*
G75*
G02*
X113521500Y-114176000I-237500J0D01*
G01*
X113046500Y-114176000D01*
G75*
G02*
X112809000Y-113938500I0J237500D01*
G01*
X112809000Y-113363500D01*
G75*
G02*
X113046500Y-113126000I237500J0D01*
G01*
G37*
G36*
G01*
X113046500Y-111376000D02*
X113521500Y-111376000D01*
G75*
G02*
X113759000Y-111613500I0J-237500D01*
G01*
X113759000Y-112188500D01*
G75*
G02*
X113521500Y-112426000I-237500J0D01*
G01*
X113046500Y-112426000D01*
G75*
G02*
X112809000Y-112188500I0J237500D01*
G01*
X112809000Y-111613500D01*
G75*
G02*
X113046500Y-111376000I237500J0D01*
G01*
G37*
%TD*%
%TO.C,R101*%
G36*
G01*
X119109500Y-112426000D02*
X118634500Y-112426000D01*
G75*
G02*
X118397000Y-112188500I0J237500D01*
G01*
X118397000Y-111613500D01*
G75*
G02*
X118634500Y-111376000I237500J0D01*
G01*
X119109500Y-111376000D01*
G75*
G02*
X119347000Y-111613500I0J-237500D01*
G01*
X119347000Y-112188500D01*
G75*
G02*
X119109500Y-112426000I-237500J0D01*
G01*
G37*
G36*
G01*
X119109500Y-114176000D02*
X118634500Y-114176000D01*
G75*
G02*
X118397000Y-113938500I0J237500D01*
G01*
X118397000Y-113363500D01*
G75*
G02*
X118634500Y-113126000I237500J0D01*
G01*
X119109500Y-113126000D01*
G75*
G02*
X119347000Y-113363500I0J-237500D01*
G01*
X119347000Y-113938500D01*
G75*
G02*
X119109500Y-114176000I-237500J0D01*
G01*
G37*
%TD*%
%TO.C,C104*%
G36*
G01*
X117444000Y-96757500D02*
X117444000Y-96282500D01*
G75*
G02*
X117681500Y-96045000I237500J0D01*
G01*
X118256500Y-96045000D01*
G75*
G02*
X118494000Y-96282500I0J-237500D01*
G01*
X118494000Y-96757500D01*
G75*
G02*
X118256500Y-96995000I-237500J0D01*
G01*
X117681500Y-96995000D01*
G75*
G02*
X117444000Y-96757500I0J237500D01*
G01*
G37*
G36*
G01*
X115694000Y-96757500D02*
X115694000Y-96282500D01*
G75*
G02*
X115931500Y-96045000I237500J0D01*
G01*
X116506500Y-96045000D01*
G75*
G02*
X116744000Y-96282500I0J-237500D01*
G01*
X116744000Y-96757500D01*
G75*
G02*
X116506500Y-96995000I-237500J0D01*
G01*
X115931500Y-96995000D01*
G75*
G02*
X115694000Y-96757500I0J237500D01*
G01*
G37*
%TD*%
%TO.C,C101*%
G36*
G01*
X120158500Y-113126000D02*
X120633500Y-113126000D01*
G75*
G02*
X120871000Y-113363500I0J-237500D01*
G01*
X120871000Y-113938500D01*
G75*
G02*
X120633500Y-114176000I-237500J0D01*
G01*
X120158500Y-114176000D01*
G75*
G02*
X119921000Y-113938500I0J237500D01*
G01*
X119921000Y-113363500D01*
G75*
G02*
X120158500Y-113126000I237500J0D01*
G01*
G37*
G36*
G01*
X120158500Y-111376000D02*
X120633500Y-111376000D01*
G75*
G02*
X120871000Y-111613500I0J-237500D01*
G01*
X120871000Y-112188500D01*
G75*
G02*
X120633500Y-112426000I-237500J0D01*
G01*
X120158500Y-112426000D01*
G75*
G02*
X119921000Y-112188500I0J237500D01*
G01*
X119921000Y-111613500D01*
G75*
G02*
X120158500Y-111376000I237500J0D01*
G01*
G37*
%TD*%
%TO.C,R102*%
G36*
G01*
X118522000Y-115586500D02*
X118522000Y-116061500D01*
G75*
G02*
X118284500Y-116299000I-237500J0D01*
G01*
X117709500Y-116299000D01*
G75*
G02*
X117472000Y-116061500I0J237500D01*
G01*
X117472000Y-115586500D01*
G75*
G02*
X117709500Y-115349000I237500J0D01*
G01*
X118284500Y-115349000D01*
G75*
G02*
X118522000Y-115586500I0J-237500D01*
G01*
G37*
G36*
G01*
X120272000Y-115586500D02*
X120272000Y-116061500D01*
G75*
G02*
X120034500Y-116299000I-237500J0D01*
G01*
X119459500Y-116299000D01*
G75*
G02*
X119222000Y-116061500I0J237500D01*
G01*
X119222000Y-115586500D01*
G75*
G02*
X119459500Y-115349000I237500J0D01*
G01*
X120034500Y-115349000D01*
G75*
G02*
X120272000Y-115586500I0J-237500D01*
G01*
G37*
%TD*%
%TO.C,R103*%
G36*
G01*
X113837000Y-115586500D02*
X113837000Y-116061500D01*
G75*
G02*
X113599500Y-116299000I-237500J0D01*
G01*
X113024500Y-116299000D01*
G75*
G02*
X112787000Y-116061500I0J237500D01*
G01*
X112787000Y-115586500D01*
G75*
G02*
X113024500Y-115349000I237500J0D01*
G01*
X113599500Y-115349000D01*
G75*
G02*
X113837000Y-115586500I0J-237500D01*
G01*
G37*
G36*
G01*
X115587000Y-115586500D02*
X115587000Y-116061500D01*
G75*
G02*
X115349500Y-116299000I-237500J0D01*
G01*
X114774500Y-116299000D01*
G75*
G02*
X114537000Y-116061500I0J237500D01*
G01*
X114537000Y-115586500D01*
G75*
G02*
X114774500Y-115349000I237500J0D01*
G01*
X115349500Y-115349000D01*
G75*
G02*
X115587000Y-115586500I0J-237500D01*
G01*
G37*
%TD*%
M02*
