%TF.GenerationSoftware,KiCad,Pcbnew,5.1.8+dfsg1-1~bpo10+1*%
%TF.CreationDate,2020-11-13T12:22:56-08:00*%
%TF.ProjectId,samd11d14_usb-c,73616d64-3131-4643-9134-5f7573622d63,B*%
%TF.SameCoordinates,Original*%
%TF.FileFunction,Copper,L1,Top*%
%TF.FilePolarity,Positive*%
%FSLAX46Y46*%
G04 Gerber Fmt 4.6, Leading zero omitted, Abs format (unit mm)*
G04 Created by KiCad (PCBNEW 5.1.8+dfsg1-1~bpo10+1) date 2020-11-13 12:22:56*
%MOMM*%
%LPD*%
G01*
G04 APERTURE LIST*
%TA.AperFunction,SMDPad,CuDef*%
%ADD10R,1.400000X1.600000*%
%TD*%
%TA.AperFunction,ComponentPad*%
%ADD11O,1.700000X1.700000*%
%TD*%
%TA.AperFunction,ComponentPad*%
%ADD12R,1.700000X1.700000*%
%TD*%
%TA.AperFunction,ComponentPad*%
%ADD13O,0.900000X1.700000*%
%TD*%
%TA.AperFunction,ComponentPad*%
%ADD14O,0.900000X2.400000*%
%TD*%
%TA.AperFunction,ComponentPad*%
%ADD15C,0.700000*%
%TD*%
%TA.AperFunction,SMDPad,CuDef*%
%ADD16R,2.600000X2.600000*%
%TD*%
%TA.AperFunction,ViaPad*%
%ADD17C,0.800000*%
%TD*%
%TA.AperFunction,Conductor*%
%ADD18C,0.508000*%
%TD*%
%TA.AperFunction,Conductor*%
%ADD19C,0.254000*%
%TD*%
%TA.AperFunction,Conductor*%
%ADD20C,0.381000*%
%TD*%
%TA.AperFunction,Conductor*%
%ADD21C,0.152400*%
%TD*%
G04 APERTURE END LIST*
D10*
%TO.P,SW101,2*%
%TO.N,GND*%
X115086000Y-93428000D03*
X115086000Y-100628000D03*
%TO.P,SW101,1*%
%TO.N,/~RESET*%
X118086000Y-93428000D03*
X118086000Y-100628000D03*
%TD*%
%TO.P,D101,2*%
%TO.N,Net-(D101-Pad2)*%
%TA.AperFunction,SMDPad,CuDef*%
G36*
G01*
X116390000Y-112071999D02*
X116390000Y-112972001D01*
G75*
G02*
X116140001Y-113222000I-249999J0D01*
G01*
X115489999Y-113222000D01*
G75*
G02*
X115240000Y-112972001I0J249999D01*
G01*
X115240000Y-112071999D01*
G75*
G02*
X115489999Y-111822000I249999J0D01*
G01*
X116140001Y-111822000D01*
G75*
G02*
X116390000Y-112071999I0J-249999D01*
G01*
G37*
%TD.AperFunction*%
%TO.P,D101,1*%
%TO.N,/PA27*%
%TA.AperFunction,SMDPad,CuDef*%
G36*
G01*
X118440000Y-112071999D02*
X118440000Y-112972001D01*
G75*
G02*
X118190001Y-113222000I-249999J0D01*
G01*
X117539999Y-113222000D01*
G75*
G02*
X117290000Y-112972001I0J249999D01*
G01*
X117290000Y-112071999D01*
G75*
G02*
X117539999Y-111822000I249999J0D01*
G01*
X118190001Y-111822000D01*
G75*
G02*
X118440000Y-112071999I0J-249999D01*
G01*
G37*
%TD.AperFunction*%
%TD*%
D11*
%TO.P,J103,12*%
%TO.N,+3V3*%
X123190000Y-121920000D03*
%TO.P,J103,11*%
%TO.N,GND*%
X123190000Y-119380000D03*
%TO.P,J103,10*%
%TO.N,/~RESET*%
X123190000Y-116840000D03*
%TO.P,J103,9*%
%TO.N,/PA27*%
X123190000Y-114300000D03*
%TO.P,J103,8*%
%TO.N,/PA14*%
X123190000Y-111760000D03*
%TO.P,J103,7*%
%TO.N,/PA15*%
X123190000Y-109220000D03*
%TO.P,J103,6*%
%TO.N,/PA16*%
X123190000Y-106680000D03*
%TO.P,J103,5*%
%TO.N,/PA17*%
X123190000Y-104140000D03*
%TO.P,J103,4*%
%TO.N,/PA22*%
X123190000Y-101600000D03*
%TO.P,J103,3*%
%TO.N,/PA23*%
X123190000Y-99060000D03*
%TO.P,J103,2*%
%TO.N,/PA30*%
X123190000Y-96520000D03*
D12*
%TO.P,J103,1*%
%TO.N,/PA31*%
X123190000Y-93980000D03*
%TD*%
D13*
%TO.P,J101,S1*%
%TO.N,GND*%
X121092000Y-121962000D03*
X112442000Y-121962000D03*
D14*
X121092000Y-118582000D03*
X112442000Y-118582000D03*
D15*
%TO.P,J101,B6*%
%TO.N,/D+*%
X117192000Y-118952000D03*
%TO.P,J101,B1*%
%TO.N,GND*%
X119742000Y-118952000D03*
%TO.P,J101,B4*%
%TO.N,+5V*%
X118892000Y-118952000D03*
%TO.P,J101,B5*%
%TO.N,Net-(J101-PadB5)*%
X118042000Y-118952000D03*
%TO.P,J101,B12*%
%TO.N,GND*%
X113792000Y-118952000D03*
%TO.P,J101,B8*%
%TO.N,N/C*%
X115492000Y-118952000D03*
%TO.P,J101,B7*%
%TO.N,/D-*%
X116342000Y-118952000D03*
%TO.P,J101,B9*%
%TO.N,+5V*%
X114642000Y-118952000D03*
%TO.P,J101,A12*%
%TO.N,GND*%
X119742000Y-117602000D03*
%TO.P,J101,A9*%
%TO.N,+5V*%
X118892000Y-117602000D03*
%TO.P,J101,A8*%
%TO.N,N/C*%
X118042000Y-117602000D03*
%TO.P,J101,A7*%
%TO.N,/D-*%
X117192000Y-117602000D03*
%TO.P,J101,A6*%
%TO.N,/D+*%
X116342000Y-117602000D03*
%TO.P,J101,A5*%
%TO.N,Net-(J101-PadA5)*%
X115492000Y-117602000D03*
%TO.P,J101,A4*%
%TO.N,+5V*%
X114642000Y-117602000D03*
%TO.P,J101,A1*%
%TO.N,GND*%
X113792000Y-117602000D03*
%TD*%
D16*
%TO.P,U102,25*%
%TO.N,N/C*%
X116840000Y-105918000D03*
%TO.P,U102,24*%
%TO.N,+3V3*%
%TA.AperFunction,SMDPad,CuDef*%
G36*
G01*
X115465000Y-104330500D02*
X115465000Y-103630500D01*
G75*
G02*
X115527500Y-103568000I62500J0D01*
G01*
X115652500Y-103568000D01*
G75*
G02*
X115715000Y-103630500I0J-62500D01*
G01*
X115715000Y-104330500D01*
G75*
G02*
X115652500Y-104393000I-62500J0D01*
G01*
X115527500Y-104393000D01*
G75*
G02*
X115465000Y-104330500I0J62500D01*
G01*
G37*
%TD.AperFunction*%
%TO.P,U102,23*%
%TO.N,GND*%
%TA.AperFunction,SMDPad,CuDef*%
G36*
G01*
X115965000Y-104330500D02*
X115965000Y-103630500D01*
G75*
G02*
X116027500Y-103568000I62500J0D01*
G01*
X116152500Y-103568000D01*
G75*
G02*
X116215000Y-103630500I0J-62500D01*
G01*
X116215000Y-104330500D01*
G75*
G02*
X116152500Y-104393000I-62500J0D01*
G01*
X116027500Y-104393000D01*
G75*
G02*
X115965000Y-104330500I0J62500D01*
G01*
G37*
%TD.AperFunction*%
%TO.P,U102,22*%
%TO.N,/D+*%
%TA.AperFunction,SMDPad,CuDef*%
G36*
G01*
X116465000Y-104330500D02*
X116465000Y-103630500D01*
G75*
G02*
X116527500Y-103568000I62500J0D01*
G01*
X116652500Y-103568000D01*
G75*
G02*
X116715000Y-103630500I0J-62500D01*
G01*
X116715000Y-104330500D01*
G75*
G02*
X116652500Y-104393000I-62500J0D01*
G01*
X116527500Y-104393000D01*
G75*
G02*
X116465000Y-104330500I0J62500D01*
G01*
G37*
%TD.AperFunction*%
%TO.P,U102,21*%
%TO.N,/D-*%
%TA.AperFunction,SMDPad,CuDef*%
G36*
G01*
X116965000Y-104330500D02*
X116965000Y-103630500D01*
G75*
G02*
X117027500Y-103568000I62500J0D01*
G01*
X117152500Y-103568000D01*
G75*
G02*
X117215000Y-103630500I0J-62500D01*
G01*
X117215000Y-104330500D01*
G75*
G02*
X117152500Y-104393000I-62500J0D01*
G01*
X117027500Y-104393000D01*
G75*
G02*
X116965000Y-104330500I0J62500D01*
G01*
G37*
%TD.AperFunction*%
%TO.P,U102,20*%
%TO.N,/PA31*%
%TA.AperFunction,SMDPad,CuDef*%
G36*
G01*
X117465000Y-104330500D02*
X117465000Y-103630500D01*
G75*
G02*
X117527500Y-103568000I62500J0D01*
G01*
X117652500Y-103568000D01*
G75*
G02*
X117715000Y-103630500I0J-62500D01*
G01*
X117715000Y-104330500D01*
G75*
G02*
X117652500Y-104393000I-62500J0D01*
G01*
X117527500Y-104393000D01*
G75*
G02*
X117465000Y-104330500I0J62500D01*
G01*
G37*
%TD.AperFunction*%
%TO.P,U102,19*%
%TO.N,/PA30*%
%TA.AperFunction,SMDPad,CuDef*%
G36*
G01*
X117965000Y-104330500D02*
X117965000Y-103630500D01*
G75*
G02*
X118027500Y-103568000I62500J0D01*
G01*
X118152500Y-103568000D01*
G75*
G02*
X118215000Y-103630500I0J-62500D01*
G01*
X118215000Y-104330500D01*
G75*
G02*
X118152500Y-104393000I-62500J0D01*
G01*
X118027500Y-104393000D01*
G75*
G02*
X117965000Y-104330500I0J62500D01*
G01*
G37*
%TD.AperFunction*%
%TO.P,U102,18*%
%TO.N,Net-(C104-Pad1)*%
%TA.AperFunction,SMDPad,CuDef*%
G36*
G01*
X118365000Y-104730500D02*
X118365000Y-104605500D01*
G75*
G02*
X118427500Y-104543000I62500J0D01*
G01*
X119127500Y-104543000D01*
G75*
G02*
X119190000Y-104605500I0J-62500D01*
G01*
X119190000Y-104730500D01*
G75*
G02*
X119127500Y-104793000I-62500J0D01*
G01*
X118427500Y-104793000D01*
G75*
G02*
X118365000Y-104730500I0J62500D01*
G01*
G37*
%TD.AperFunction*%
%TO.P,U102,17*%
%TO.N,/PA27*%
%TA.AperFunction,SMDPad,CuDef*%
G36*
G01*
X118365000Y-105230500D02*
X118365000Y-105105500D01*
G75*
G02*
X118427500Y-105043000I62500J0D01*
G01*
X119127500Y-105043000D01*
G75*
G02*
X119190000Y-105105500I0J-62500D01*
G01*
X119190000Y-105230500D01*
G75*
G02*
X119127500Y-105293000I-62500J0D01*
G01*
X118427500Y-105293000D01*
G75*
G02*
X118365000Y-105230500I0J62500D01*
G01*
G37*
%TD.AperFunction*%
%TO.P,U102,16*%
%TO.N,/PA23*%
%TA.AperFunction,SMDPad,CuDef*%
G36*
G01*
X118365000Y-105730500D02*
X118365000Y-105605500D01*
G75*
G02*
X118427500Y-105543000I62500J0D01*
G01*
X119127500Y-105543000D01*
G75*
G02*
X119190000Y-105605500I0J-62500D01*
G01*
X119190000Y-105730500D01*
G75*
G02*
X119127500Y-105793000I-62500J0D01*
G01*
X118427500Y-105793000D01*
G75*
G02*
X118365000Y-105730500I0J62500D01*
G01*
G37*
%TD.AperFunction*%
%TO.P,U102,15*%
%TO.N,/PA22*%
%TA.AperFunction,SMDPad,CuDef*%
G36*
G01*
X118365000Y-106230500D02*
X118365000Y-106105500D01*
G75*
G02*
X118427500Y-106043000I62500J0D01*
G01*
X119127500Y-106043000D01*
G75*
G02*
X119190000Y-106105500I0J-62500D01*
G01*
X119190000Y-106230500D01*
G75*
G02*
X119127500Y-106293000I-62500J0D01*
G01*
X118427500Y-106293000D01*
G75*
G02*
X118365000Y-106230500I0J62500D01*
G01*
G37*
%TD.AperFunction*%
%TO.P,U102,14*%
%TO.N,/PA17*%
%TA.AperFunction,SMDPad,CuDef*%
G36*
G01*
X118365000Y-106730500D02*
X118365000Y-106605500D01*
G75*
G02*
X118427500Y-106543000I62500J0D01*
G01*
X119127500Y-106543000D01*
G75*
G02*
X119190000Y-106605500I0J-62500D01*
G01*
X119190000Y-106730500D01*
G75*
G02*
X119127500Y-106793000I-62500J0D01*
G01*
X118427500Y-106793000D01*
G75*
G02*
X118365000Y-106730500I0J62500D01*
G01*
G37*
%TD.AperFunction*%
%TO.P,U102,13*%
%TO.N,/PA16*%
%TA.AperFunction,SMDPad,CuDef*%
G36*
G01*
X118365000Y-107230500D02*
X118365000Y-107105500D01*
G75*
G02*
X118427500Y-107043000I62500J0D01*
G01*
X119127500Y-107043000D01*
G75*
G02*
X119190000Y-107105500I0J-62500D01*
G01*
X119190000Y-107230500D01*
G75*
G02*
X119127500Y-107293000I-62500J0D01*
G01*
X118427500Y-107293000D01*
G75*
G02*
X118365000Y-107230500I0J62500D01*
G01*
G37*
%TD.AperFunction*%
%TO.P,U102,12*%
%TO.N,/PA15*%
%TA.AperFunction,SMDPad,CuDef*%
G36*
G01*
X117965000Y-108205500D02*
X117965000Y-107505500D01*
G75*
G02*
X118027500Y-107443000I62500J0D01*
G01*
X118152500Y-107443000D01*
G75*
G02*
X118215000Y-107505500I0J-62500D01*
G01*
X118215000Y-108205500D01*
G75*
G02*
X118152500Y-108268000I-62500J0D01*
G01*
X118027500Y-108268000D01*
G75*
G02*
X117965000Y-108205500I0J62500D01*
G01*
G37*
%TD.AperFunction*%
%TO.P,U102,11*%
%TO.N,/PA14*%
%TA.AperFunction,SMDPad,CuDef*%
G36*
G01*
X117465000Y-108205500D02*
X117465000Y-107505500D01*
G75*
G02*
X117527500Y-107443000I62500J0D01*
G01*
X117652500Y-107443000D01*
G75*
G02*
X117715000Y-107505500I0J-62500D01*
G01*
X117715000Y-108205500D01*
G75*
G02*
X117652500Y-108268000I-62500J0D01*
G01*
X117527500Y-108268000D01*
G75*
G02*
X117465000Y-108205500I0J62500D01*
G01*
G37*
%TD.AperFunction*%
%TO.P,U102,10*%
%TO.N,/PA11*%
%TA.AperFunction,SMDPad,CuDef*%
G36*
G01*
X116965000Y-108205500D02*
X116965000Y-107505500D01*
G75*
G02*
X117027500Y-107443000I62500J0D01*
G01*
X117152500Y-107443000D01*
G75*
G02*
X117215000Y-107505500I0J-62500D01*
G01*
X117215000Y-108205500D01*
G75*
G02*
X117152500Y-108268000I-62500J0D01*
G01*
X117027500Y-108268000D01*
G75*
G02*
X116965000Y-108205500I0J62500D01*
G01*
G37*
%TD.AperFunction*%
%TO.P,U102,9*%
%TO.N,/PA10*%
%TA.AperFunction,SMDPad,CuDef*%
G36*
G01*
X116465000Y-108205500D02*
X116465000Y-107505500D01*
G75*
G02*
X116527500Y-107443000I62500J0D01*
G01*
X116652500Y-107443000D01*
G75*
G02*
X116715000Y-107505500I0J-62500D01*
G01*
X116715000Y-108205500D01*
G75*
G02*
X116652500Y-108268000I-62500J0D01*
G01*
X116527500Y-108268000D01*
G75*
G02*
X116465000Y-108205500I0J62500D01*
G01*
G37*
%TD.AperFunction*%
%TO.P,U102,8*%
%TO.N,/PA09*%
%TA.AperFunction,SMDPad,CuDef*%
G36*
G01*
X115965000Y-108205500D02*
X115965000Y-107505500D01*
G75*
G02*
X116027500Y-107443000I62500J0D01*
G01*
X116152500Y-107443000D01*
G75*
G02*
X116215000Y-107505500I0J-62500D01*
G01*
X116215000Y-108205500D01*
G75*
G02*
X116152500Y-108268000I-62500J0D01*
G01*
X116027500Y-108268000D01*
G75*
G02*
X115965000Y-108205500I0J62500D01*
G01*
G37*
%TD.AperFunction*%
%TO.P,U102,7*%
%TO.N,/PA08*%
%TA.AperFunction,SMDPad,CuDef*%
G36*
G01*
X115465000Y-108205500D02*
X115465000Y-107505500D01*
G75*
G02*
X115527500Y-107443000I62500J0D01*
G01*
X115652500Y-107443000D01*
G75*
G02*
X115715000Y-107505500I0J-62500D01*
G01*
X115715000Y-108205500D01*
G75*
G02*
X115652500Y-108268000I-62500J0D01*
G01*
X115527500Y-108268000D01*
G75*
G02*
X115465000Y-108205500I0J62500D01*
G01*
G37*
%TD.AperFunction*%
%TO.P,U102,6*%
%TO.N,/PA07*%
%TA.AperFunction,SMDPad,CuDef*%
G36*
G01*
X114490000Y-107230500D02*
X114490000Y-107105500D01*
G75*
G02*
X114552500Y-107043000I62500J0D01*
G01*
X115252500Y-107043000D01*
G75*
G02*
X115315000Y-107105500I0J-62500D01*
G01*
X115315000Y-107230500D01*
G75*
G02*
X115252500Y-107293000I-62500J0D01*
G01*
X114552500Y-107293000D01*
G75*
G02*
X114490000Y-107230500I0J62500D01*
G01*
G37*
%TD.AperFunction*%
%TO.P,U102,5*%
%TO.N,/PA06*%
%TA.AperFunction,SMDPad,CuDef*%
G36*
G01*
X114490000Y-106730500D02*
X114490000Y-106605500D01*
G75*
G02*
X114552500Y-106543000I62500J0D01*
G01*
X115252500Y-106543000D01*
G75*
G02*
X115315000Y-106605500I0J-62500D01*
G01*
X115315000Y-106730500D01*
G75*
G02*
X115252500Y-106793000I-62500J0D01*
G01*
X114552500Y-106793000D01*
G75*
G02*
X114490000Y-106730500I0J62500D01*
G01*
G37*
%TD.AperFunction*%
%TO.P,U102,4*%
%TO.N,/PA05*%
%TA.AperFunction,SMDPad,CuDef*%
G36*
G01*
X114490000Y-106230500D02*
X114490000Y-106105500D01*
G75*
G02*
X114552500Y-106043000I62500J0D01*
G01*
X115252500Y-106043000D01*
G75*
G02*
X115315000Y-106105500I0J-62500D01*
G01*
X115315000Y-106230500D01*
G75*
G02*
X115252500Y-106293000I-62500J0D01*
G01*
X114552500Y-106293000D01*
G75*
G02*
X114490000Y-106230500I0J62500D01*
G01*
G37*
%TD.AperFunction*%
%TO.P,U102,3*%
%TO.N,/PA04*%
%TA.AperFunction,SMDPad,CuDef*%
G36*
G01*
X114490000Y-105730500D02*
X114490000Y-105605500D01*
G75*
G02*
X114552500Y-105543000I62500J0D01*
G01*
X115252500Y-105543000D01*
G75*
G02*
X115315000Y-105605500I0J-62500D01*
G01*
X115315000Y-105730500D01*
G75*
G02*
X115252500Y-105793000I-62500J0D01*
G01*
X114552500Y-105793000D01*
G75*
G02*
X114490000Y-105730500I0J62500D01*
G01*
G37*
%TD.AperFunction*%
%TO.P,U102,2*%
%TO.N,/PA03*%
%TA.AperFunction,SMDPad,CuDef*%
G36*
G01*
X114490000Y-105230500D02*
X114490000Y-105105500D01*
G75*
G02*
X114552500Y-105043000I62500J0D01*
G01*
X115252500Y-105043000D01*
G75*
G02*
X115315000Y-105105500I0J-62500D01*
G01*
X115315000Y-105230500D01*
G75*
G02*
X115252500Y-105293000I-62500J0D01*
G01*
X114552500Y-105293000D01*
G75*
G02*
X114490000Y-105230500I0J62500D01*
G01*
G37*
%TD.AperFunction*%
%TO.P,U102,1*%
%TO.N,/PA02*%
%TA.AperFunction,SMDPad,CuDef*%
G36*
G01*
X114490000Y-104730500D02*
X114490000Y-104605500D01*
G75*
G02*
X114552500Y-104543000I62500J0D01*
G01*
X115252500Y-104543000D01*
G75*
G02*
X115315000Y-104605500I0J-62500D01*
G01*
X115315000Y-104730500D01*
G75*
G02*
X115252500Y-104793000I-62500J0D01*
G01*
X114552500Y-104793000D01*
G75*
G02*
X114490000Y-104730500I0J62500D01*
G01*
G37*
%TD.AperFunction*%
%TD*%
D11*
%TO.P,J102,12*%
%TO.N,+5V*%
X110490000Y-121920000D03*
%TO.P,J102,11*%
%TO.N,/EN*%
X110490000Y-119380000D03*
%TO.P,J102,10*%
%TO.N,/PA11*%
X110490000Y-116840000D03*
%TO.P,J102,9*%
%TO.N,/PA10*%
X110490000Y-114300000D03*
%TO.P,J102,8*%
%TO.N,/PA09*%
X110490000Y-111760000D03*
%TO.P,J102,7*%
%TO.N,/PA08*%
X110490000Y-109220000D03*
%TO.P,J102,6*%
%TO.N,/PA07*%
X110490000Y-106680000D03*
%TO.P,J102,5*%
%TO.N,/PA06*%
X110490000Y-104140000D03*
%TO.P,J102,4*%
%TO.N,/PA05*%
X110490000Y-101600000D03*
%TO.P,J102,3*%
%TO.N,/PA04*%
X110490000Y-99060000D03*
%TO.P,J102,2*%
%TO.N,/PA03*%
X110490000Y-96520000D03*
D12*
%TO.P,J102,1*%
%TO.N,/PA02*%
X110490000Y-93980000D03*
%TD*%
D17*
%TO.N,GND*%
X114600000Y-98840000D03*
%TO.N,+5V*%
X120857206Y-116516106D03*
%TO.N,+3V3*%
X114551000Y-103381000D03*
X114269520Y-112654080D03*
%TO.N,Net-(C104-Pad1)*%
X119126000Y-103632000D03*
%TO.N,/PA27*%
X118850142Y-110793352D03*
X119992236Y-104878328D03*
%TO.N,/D+*%
X116133275Y-102386725D03*
%TO.N,/D-*%
X116806725Y-101713275D03*
%TO.N,/EN*%
X117690000Y-114740000D03*
%TO.N,/~RESET*%
X118086000Y-99084000D03*
X119230000Y-100500000D03*
X122490224Y-113084651D03*
%TO.N,Net-(D101-Pad2)*%
X115181188Y-110915949D03*
%TD*%
D18*
%TO.N,GND*%
X119742000Y-117602000D02*
X119742000Y-118952000D01*
X113792000Y-118952000D02*
X113792000Y-117602000D01*
D19*
X115696398Y-103288590D02*
X115086000Y-102678192D01*
X115810590Y-103288590D02*
X115696398Y-103288590D01*
X115086000Y-102678192D02*
X115086000Y-100628000D01*
X116090000Y-103568000D02*
X115810590Y-103288590D01*
X116090000Y-103980500D02*
X116090000Y-103568000D01*
X115086000Y-100628000D02*
X115086000Y-99326000D01*
X115086000Y-99326000D02*
X114600000Y-98840000D01*
X115086000Y-98354000D02*
X114600000Y-98840000D01*
X115086000Y-93428000D02*
X115086000Y-98354000D01*
D18*
%TO.N,+5V*%
X114642000Y-117602000D02*
X114642000Y-118952000D01*
X118892000Y-117602000D02*
X118892000Y-118952000D01*
X114903427Y-119708401D02*
X114642000Y-119446974D01*
X118630573Y-119708401D02*
X114903427Y-119708401D01*
X118892000Y-119446974D02*
X118630573Y-119708401D01*
X118892000Y-118952000D02*
X118892000Y-119446974D01*
X111704410Y-120705590D02*
X110490000Y-121920000D01*
X113383384Y-120705590D02*
X111704410Y-120705590D01*
X114642000Y-119446974D02*
X113383384Y-120705590D01*
X114642000Y-118952000D02*
X114642000Y-119446974D01*
X118892000Y-117107026D02*
X119482920Y-116516106D01*
X119482920Y-116516106D02*
X120857206Y-116516106D01*
X118892000Y-117602000D02*
X118892000Y-117107026D01*
D19*
%TO.N,+3V3*%
X115150500Y-103980500D02*
X114551000Y-103381000D01*
X115590000Y-103980500D02*
X115150500Y-103980500D01*
D20*
X121997099Y-120727099D02*
X123190000Y-121920000D01*
X119665959Y-113997099D02*
X121997099Y-116328239D01*
X115612539Y-113997099D02*
X119665959Y-113997099D01*
X121997099Y-116328239D02*
X121997099Y-120727099D01*
X114269520Y-112654080D02*
X115612539Y-113997099D01*
D19*
%TO.N,Net-(C104-Pad1)*%
X119126000Y-104319500D02*
X118777500Y-104668000D01*
X119126000Y-103632000D02*
X119126000Y-104319500D01*
%TO.N,/PA27*%
X118850142Y-111536858D02*
X117865000Y-112522000D01*
X118850142Y-110793352D02*
X118850142Y-111536858D01*
X119702564Y-105168000D02*
X119992236Y-104878328D01*
X118777500Y-105168000D02*
X119702564Y-105168000D01*
D21*
%TO.N,/D+*%
X116342000Y-118102000D02*
X117192000Y-118952000D01*
X116342000Y-117602000D02*
X116342000Y-118102000D01*
X116590000Y-103980500D02*
X116687600Y-103882900D01*
X116591198Y-102386725D02*
X116133275Y-102386725D01*
X116687600Y-103882900D02*
X116687600Y-102483127D01*
X116687600Y-102483127D02*
X116591198Y-102386725D01*
%TO.N,/D-*%
X116806725Y-102171198D02*
X116806725Y-101713275D01*
X117090000Y-103980500D02*
X116992400Y-103882900D01*
X116992400Y-102356873D02*
X116806725Y-102171198D01*
X116992400Y-103882900D02*
X116992400Y-102356873D01*
%TO.N,/EN*%
X114574301Y-114740000D02*
X110490000Y-118824301D01*
X110490000Y-118824301D02*
X110490000Y-119380000D01*
X117690000Y-114740000D02*
X114574301Y-114740000D01*
D19*
%TO.N,/PA11*%
X115448954Y-110236548D02*
X114855075Y-110236548D01*
X114855075Y-110236548D02*
X111619401Y-113472222D01*
X111619401Y-115710599D02*
X110490000Y-116840000D01*
X117090000Y-108595502D02*
X115448954Y-110236548D01*
X111619401Y-113472222D02*
X111619401Y-115710599D01*
X117090000Y-107855500D02*
X117090000Y-108595502D01*
%TO.N,/PA10*%
X110490000Y-114026872D02*
X110490000Y-114300000D01*
X115484340Y-109626411D02*
X114890461Y-109626411D01*
X116590000Y-107855500D02*
X116590000Y-108520751D01*
X116590000Y-108520751D02*
X115484340Y-109626411D01*
X114890461Y-109626411D02*
X110490000Y-114026872D01*
%TO.N,/PA09*%
X116090000Y-107855500D02*
X116090000Y-108268000D01*
X113030000Y-109220000D02*
X110490000Y-111760000D01*
X116090000Y-108268000D02*
X115138000Y-109220000D01*
X115138000Y-109220000D02*
X113030000Y-109220000D01*
%TO.N,/PA08*%
X111854500Y-107855500D02*
X110490000Y-109220000D01*
X115590000Y-107855500D02*
X111854500Y-107855500D01*
%TO.N,/PA07*%
X110978000Y-107168000D02*
X110490000Y-106680000D01*
X114902500Y-107168000D02*
X110978000Y-107168000D01*
%TO.N,/PA06*%
X113018000Y-106668000D02*
X110490000Y-104140000D01*
X114902500Y-106668000D02*
X113018000Y-106668000D01*
%TO.N,/PA05*%
X110490000Y-102301036D02*
X110490000Y-101600000D01*
X114356964Y-106168000D02*
X110490000Y-102301036D01*
X114902500Y-106168000D02*
X114356964Y-106168000D01*
%TO.N,/PA04*%
X111619401Y-100189401D02*
X110490000Y-99060000D01*
X111619401Y-102855686D02*
X111619401Y-100189401D01*
X114431715Y-105668000D02*
X111619401Y-102855686D01*
X114902500Y-105668000D02*
X114431715Y-105668000D01*
%TO.N,/PA03*%
X114902500Y-105168000D02*
X114506466Y-105168000D01*
X113465187Y-99495187D02*
X110490000Y-96520000D01*
X114506466Y-105168000D02*
X113465187Y-104126721D01*
X113465187Y-104126721D02*
X113465187Y-99495187D01*
%TO.N,/PA02*%
X114902500Y-104668000D02*
X114832484Y-104668000D01*
X113871598Y-103707114D02*
X113871598Y-97361598D01*
X114832484Y-104668000D02*
X113871598Y-103707114D01*
X113871598Y-97361598D02*
X110490000Y-93980000D01*
%TO.N,/~RESET*%
X118086000Y-100628000D02*
X118086000Y-99084000D01*
X118086000Y-97814000D02*
X118086000Y-99084000D01*
X118086000Y-93428000D02*
X118086000Y-97814000D01*
X118086000Y-100628000D02*
X119102000Y-100628000D01*
X119102000Y-100628000D02*
X119230000Y-100500000D01*
X122060599Y-115710599D02*
X123190000Y-116840000D01*
X122060599Y-113514276D02*
X122060599Y-115710599D01*
X122490224Y-113084651D02*
X122060599Y-113514276D01*
%TO.N,/PA31*%
X119909402Y-100826114D02*
X119909402Y-97260598D01*
X117590000Y-103980500D02*
X117590000Y-103145516D01*
X119909402Y-97260598D02*
X123190000Y-93980000D01*
X117590000Y-103145516D02*
X119909402Y-100826114D01*
%TO.N,/PA30*%
X120315813Y-100994454D02*
X120315813Y-99394187D01*
X118090000Y-103220267D02*
X120315813Y-100994454D01*
X118090000Y-103980500D02*
X118090000Y-103220267D01*
X120315813Y-99394187D02*
X123190000Y-96520000D01*
%TO.N,/PA23*%
X118777500Y-105668000D02*
X120208080Y-105668000D01*
X120208080Y-105668000D02*
X120671638Y-105204442D01*
X120671638Y-101578362D02*
X123190000Y-99060000D01*
X120671638Y-105204442D02*
X120671638Y-101578362D01*
%TO.N,/PA22*%
X118777500Y-106168000D02*
X120293070Y-106168000D01*
X121078049Y-105383021D02*
X121078049Y-103711951D01*
X121078049Y-103711951D02*
X123190000Y-101600000D01*
X120293070Y-106168000D02*
X121078049Y-105383021D01*
%TO.N,/PA17*%
X120662000Y-106668000D02*
X123190000Y-104140000D01*
X118777500Y-106668000D02*
X120662000Y-106668000D01*
%TO.N,/PA16*%
X122702000Y-107168000D02*
X123190000Y-106680000D01*
X118777500Y-107168000D02*
X122702000Y-107168000D01*
%TO.N,/PA15*%
X119454500Y-109220000D02*
X123190000Y-109220000D01*
X118090000Y-107855500D02*
X119454500Y-109220000D01*
%TO.N,/PA14*%
X121082000Y-111760000D02*
X123190000Y-111760000D01*
X117590000Y-108268000D02*
X121082000Y-111760000D01*
X117590000Y-107855500D02*
X117590000Y-108268000D01*
%TO.N,Net-(D101-Pad2)*%
X115815000Y-112522000D02*
X115815000Y-111549761D01*
X115815000Y-111549761D02*
X115181188Y-110915949D01*
%TD*%
M02*
