M48
; DRILL file {KiCad 5.1.8+dfsg1-1~bpo10+1} date Fri Nov 13 08:11:38 2020
; FORMAT={-:-/ absolute / inch / decimal}
; #@! TF.CreationDate,2020-11-13T08:11:38-08:00
; #@! TF.GenerationSoftware,Kicad,Pcbnew,5.1.8+dfsg1-1~bpo10+1
FMAT,2
INCH
T1C0.0157
T2C0.0197
T3C0.0236
T4C0.0394
%
G90
G05
T1
X4.4988Y-4.4352
X4.5099Y-4.0701
X4.5118Y-3.8913
X4.5722Y-4.031
X4.5987Y-4.0045
X4.6335Y-4.5173
X4.6941Y-3.9567
X4.7241Y-4.1291
X4.7582Y-4.5872
X4.8224Y-4.4522
X4.48Y-4.63
X4.48Y-4.6831
X4.5135Y-4.63
X4.5135Y-4.6831
X4.5469Y-4.63
X4.5469Y-4.6831
X4.5804Y-4.63
X4.5804Y-4.6831
X4.6139Y-4.63
X4.6139Y-4.6831
X4.6473Y-4.63
X4.6473Y-4.6831
X4.6808Y-4.63
X4.6808Y-4.6831
X4.7143Y-4.63
X4.7143Y-4.6831
T2
X4.5347Y-4.3668
X4.6491Y-3.9009
X4.6791Y-4.3619
X4.69Y-4.08
T4
X4.35Y-3.7
X4.35Y-3.8
X4.35Y-3.9
X4.35Y-4.0
X4.35Y-4.1
X4.35Y-4.2
X4.35Y-4.3
X4.35Y-4.4
X4.35Y-4.5
X4.35Y-4.6
X4.35Y-4.7
X4.35Y-4.8
X4.85Y-3.7
X4.85Y-3.8
X4.85Y-3.9
X4.85Y-4.0
X4.85Y-4.1
X4.85Y-4.2
X4.85Y-4.3
X4.85Y-4.4
X4.85Y-4.5
X4.85Y-4.6
X4.85Y-4.7
X4.85Y-4.8
T3
G00X4.4269Y-4.6391
M15
G01X4.4269Y-4.6981
M16
G05
G00X4.4269Y-4.7859
M15
G01X4.4269Y-4.8174
M16
G05
G00X4.7674Y-4.6391
M15
G01X4.7674Y-4.6981
M16
G05
G00X4.7674Y-4.7859
M15
G01X4.7674Y-4.8174
M16
G05
T0
M30
