%TF.GenerationSoftware,KiCad,Pcbnew,5.1.8+dfsg1-1~bpo10+1*%
%TF.CreationDate,2020-11-13T12:22:56-08:00*%
%TF.ProjectId,samd11d14_usb-c,73616d64-3131-4643-9134-5f7573622d63,B*%
%TF.SameCoordinates,Original*%
%TF.FileFunction,Soldermask,Top*%
%TF.FilePolarity,Negative*%
%FSLAX46Y46*%
G04 Gerber Fmt 4.6, Leading zero omitted, Abs format (unit mm)*
G04 Created by KiCad (PCBNEW 5.1.8+dfsg1-1~bpo10+1) date 2020-11-13 12:22:56*
%MOMM*%
%LPD*%
G01*
G04 APERTURE LIST*
%ADD10O,1.801600X1.801600*%
%ADD11O,1.001600X1.801600*%
%ADD12O,1.001600X2.501600*%
%ADD13C,0.801600*%
G04 APERTURE END LIST*
%TO.C,SW101*%
G36*
G01*
X114386000Y-92577200D02*
X115786000Y-92577200D01*
G75*
G02*
X115836800Y-92628000I0J-50800D01*
G01*
X115836800Y-94228000D01*
G75*
G02*
X115786000Y-94278800I-50800J0D01*
G01*
X114386000Y-94278800D01*
G75*
G02*
X114335200Y-94228000I0J50800D01*
G01*
X114335200Y-92628000D01*
G75*
G02*
X114386000Y-92577200I50800J0D01*
G01*
G37*
G36*
G01*
X114386000Y-99777200D02*
X115786000Y-99777200D01*
G75*
G02*
X115836800Y-99828000I0J-50800D01*
G01*
X115836800Y-101428000D01*
G75*
G02*
X115786000Y-101478800I-50800J0D01*
G01*
X114386000Y-101478800D01*
G75*
G02*
X114335200Y-101428000I0J50800D01*
G01*
X114335200Y-99828000D01*
G75*
G02*
X114386000Y-99777200I50800J0D01*
G01*
G37*
G36*
G01*
X117386000Y-92577200D02*
X118786000Y-92577200D01*
G75*
G02*
X118836800Y-92628000I0J-50800D01*
G01*
X118836800Y-94228000D01*
G75*
G02*
X118786000Y-94278800I-50800J0D01*
G01*
X117386000Y-94278800D01*
G75*
G02*
X117335200Y-94228000I0J50800D01*
G01*
X117335200Y-92628000D01*
G75*
G02*
X117386000Y-92577200I50800J0D01*
G01*
G37*
G36*
G01*
X117386000Y-99777200D02*
X118786000Y-99777200D01*
G75*
G02*
X118836800Y-99828000I0J-50800D01*
G01*
X118836800Y-101428000D01*
G75*
G02*
X118786000Y-101478800I-50800J0D01*
G01*
X117386000Y-101478800D01*
G75*
G02*
X117335200Y-101428000I0J50800D01*
G01*
X117335200Y-99828000D01*
G75*
G02*
X117386000Y-99777200I50800J0D01*
G01*
G37*
%TD*%
%TO.C,D101*%
G36*
G01*
X116440800Y-112043285D02*
X116440800Y-113000715D01*
G75*
G02*
X116168715Y-113272800I-272085J0D01*
G01*
X115461285Y-113272800D01*
G75*
G02*
X115189200Y-113000715I0J272085D01*
G01*
X115189200Y-112043285D01*
G75*
G02*
X115461285Y-111771200I272085J0D01*
G01*
X116168715Y-111771200D01*
G75*
G02*
X116440800Y-112043285I0J-272085D01*
G01*
G37*
G36*
G01*
X118490800Y-112043285D02*
X118490800Y-113000715D01*
G75*
G02*
X118218715Y-113272800I-272085J0D01*
G01*
X117511285Y-113272800D01*
G75*
G02*
X117239200Y-113000715I0J272085D01*
G01*
X117239200Y-112043285D01*
G75*
G02*
X117511285Y-111771200I272085J0D01*
G01*
X118218715Y-111771200D01*
G75*
G02*
X118490800Y-112043285I0J-272085D01*
G01*
G37*
%TD*%
D10*
%TO.C,J103*%
X123190000Y-121920000D03*
X123190000Y-119380000D03*
X123190000Y-116840000D03*
X123190000Y-114300000D03*
X123190000Y-111760000D03*
X123190000Y-109220000D03*
X123190000Y-106680000D03*
X123190000Y-104140000D03*
X123190000Y-101600000D03*
X123190000Y-99060000D03*
X123190000Y-96520000D03*
G36*
G01*
X124090800Y-93130000D02*
X124090800Y-94830000D01*
G75*
G02*
X124040000Y-94880800I-50800J0D01*
G01*
X122340000Y-94880800D01*
G75*
G02*
X122289200Y-94830000I0J50800D01*
G01*
X122289200Y-93130000D01*
G75*
G02*
X122340000Y-93079200I50800J0D01*
G01*
X124040000Y-93079200D01*
G75*
G02*
X124090800Y-93130000I0J-50800D01*
G01*
G37*
%TD*%
D11*
%TO.C,J101*%
X121092000Y-121962000D03*
X112442000Y-121962000D03*
D12*
X121092000Y-118582000D03*
X112442000Y-118582000D03*
D13*
X117192000Y-118952000D03*
X119742000Y-118952000D03*
X118892000Y-118952000D03*
X118042000Y-118952000D03*
X113792000Y-118952000D03*
X115492000Y-118952000D03*
X116342000Y-118952000D03*
X114642000Y-118952000D03*
X119742000Y-117602000D03*
X118892000Y-117602000D03*
X118042000Y-117602000D03*
X117192000Y-117602000D03*
X116342000Y-117602000D03*
X115492000Y-117602000D03*
X114642000Y-117602000D03*
X113792000Y-117602000D03*
%TD*%
%TO.C,U102*%
G36*
G01*
X115489200Y-107218000D02*
X115489200Y-104618000D01*
G75*
G02*
X115540000Y-104567200I50800J0D01*
G01*
X118140000Y-104567200D01*
G75*
G02*
X118190800Y-104618000I0J-50800D01*
G01*
X118190800Y-107218000D01*
G75*
G02*
X118140000Y-107268800I-50800J0D01*
G01*
X115540000Y-107268800D01*
G75*
G02*
X115489200Y-107218000I0J50800D01*
G01*
G37*
G36*
G01*
X115414200Y-104355900D02*
X115414200Y-103605100D01*
G75*
G02*
X115502100Y-103517200I87900J0D01*
G01*
X115677900Y-103517200D01*
G75*
G02*
X115765800Y-103605100I0J-87900D01*
G01*
X115765800Y-104355900D01*
G75*
G02*
X115677900Y-104443800I-87900J0D01*
G01*
X115502100Y-104443800D01*
G75*
G02*
X115414200Y-104355900I0J87900D01*
G01*
G37*
G36*
G01*
X115914200Y-104355900D02*
X115914200Y-103605100D01*
G75*
G02*
X116002100Y-103517200I87900J0D01*
G01*
X116177900Y-103517200D01*
G75*
G02*
X116265800Y-103605100I0J-87900D01*
G01*
X116265800Y-104355900D01*
G75*
G02*
X116177900Y-104443800I-87900J0D01*
G01*
X116002100Y-104443800D01*
G75*
G02*
X115914200Y-104355900I0J87900D01*
G01*
G37*
G36*
G01*
X116414200Y-104355900D02*
X116414200Y-103605100D01*
G75*
G02*
X116502100Y-103517200I87900J0D01*
G01*
X116677900Y-103517200D01*
G75*
G02*
X116765800Y-103605100I0J-87900D01*
G01*
X116765800Y-104355900D01*
G75*
G02*
X116677900Y-104443800I-87900J0D01*
G01*
X116502100Y-104443800D01*
G75*
G02*
X116414200Y-104355900I0J87900D01*
G01*
G37*
G36*
G01*
X116914200Y-104355900D02*
X116914200Y-103605100D01*
G75*
G02*
X117002100Y-103517200I87900J0D01*
G01*
X117177900Y-103517200D01*
G75*
G02*
X117265800Y-103605100I0J-87900D01*
G01*
X117265800Y-104355900D01*
G75*
G02*
X117177900Y-104443800I-87900J0D01*
G01*
X117002100Y-104443800D01*
G75*
G02*
X116914200Y-104355900I0J87900D01*
G01*
G37*
G36*
G01*
X117414200Y-104355900D02*
X117414200Y-103605100D01*
G75*
G02*
X117502100Y-103517200I87900J0D01*
G01*
X117677900Y-103517200D01*
G75*
G02*
X117765800Y-103605100I0J-87900D01*
G01*
X117765800Y-104355900D01*
G75*
G02*
X117677900Y-104443800I-87900J0D01*
G01*
X117502100Y-104443800D01*
G75*
G02*
X117414200Y-104355900I0J87900D01*
G01*
G37*
G36*
G01*
X117914200Y-104355900D02*
X117914200Y-103605100D01*
G75*
G02*
X118002100Y-103517200I87900J0D01*
G01*
X118177900Y-103517200D01*
G75*
G02*
X118265800Y-103605100I0J-87900D01*
G01*
X118265800Y-104355900D01*
G75*
G02*
X118177900Y-104443800I-87900J0D01*
G01*
X118002100Y-104443800D01*
G75*
G02*
X117914200Y-104355900I0J87900D01*
G01*
G37*
G36*
G01*
X118314200Y-104755900D02*
X118314200Y-104580100D01*
G75*
G02*
X118402100Y-104492200I87900J0D01*
G01*
X119152900Y-104492200D01*
G75*
G02*
X119240800Y-104580100I0J-87900D01*
G01*
X119240800Y-104755900D01*
G75*
G02*
X119152900Y-104843800I-87900J0D01*
G01*
X118402100Y-104843800D01*
G75*
G02*
X118314200Y-104755900I0J87900D01*
G01*
G37*
G36*
G01*
X118314200Y-105255900D02*
X118314200Y-105080100D01*
G75*
G02*
X118402100Y-104992200I87900J0D01*
G01*
X119152900Y-104992200D01*
G75*
G02*
X119240800Y-105080100I0J-87900D01*
G01*
X119240800Y-105255900D01*
G75*
G02*
X119152900Y-105343800I-87900J0D01*
G01*
X118402100Y-105343800D01*
G75*
G02*
X118314200Y-105255900I0J87900D01*
G01*
G37*
G36*
G01*
X118314200Y-105755900D02*
X118314200Y-105580100D01*
G75*
G02*
X118402100Y-105492200I87900J0D01*
G01*
X119152900Y-105492200D01*
G75*
G02*
X119240800Y-105580100I0J-87900D01*
G01*
X119240800Y-105755900D01*
G75*
G02*
X119152900Y-105843800I-87900J0D01*
G01*
X118402100Y-105843800D01*
G75*
G02*
X118314200Y-105755900I0J87900D01*
G01*
G37*
G36*
G01*
X118314200Y-106255900D02*
X118314200Y-106080100D01*
G75*
G02*
X118402100Y-105992200I87900J0D01*
G01*
X119152900Y-105992200D01*
G75*
G02*
X119240800Y-106080100I0J-87900D01*
G01*
X119240800Y-106255900D01*
G75*
G02*
X119152900Y-106343800I-87900J0D01*
G01*
X118402100Y-106343800D01*
G75*
G02*
X118314200Y-106255900I0J87900D01*
G01*
G37*
G36*
G01*
X118314200Y-106755900D02*
X118314200Y-106580100D01*
G75*
G02*
X118402100Y-106492200I87900J0D01*
G01*
X119152900Y-106492200D01*
G75*
G02*
X119240800Y-106580100I0J-87900D01*
G01*
X119240800Y-106755900D01*
G75*
G02*
X119152900Y-106843800I-87900J0D01*
G01*
X118402100Y-106843800D01*
G75*
G02*
X118314200Y-106755900I0J87900D01*
G01*
G37*
G36*
G01*
X118314200Y-107255900D02*
X118314200Y-107080100D01*
G75*
G02*
X118402100Y-106992200I87900J0D01*
G01*
X119152900Y-106992200D01*
G75*
G02*
X119240800Y-107080100I0J-87900D01*
G01*
X119240800Y-107255900D01*
G75*
G02*
X119152900Y-107343800I-87900J0D01*
G01*
X118402100Y-107343800D01*
G75*
G02*
X118314200Y-107255900I0J87900D01*
G01*
G37*
G36*
G01*
X117914200Y-108230900D02*
X117914200Y-107480100D01*
G75*
G02*
X118002100Y-107392200I87900J0D01*
G01*
X118177900Y-107392200D01*
G75*
G02*
X118265800Y-107480100I0J-87900D01*
G01*
X118265800Y-108230900D01*
G75*
G02*
X118177900Y-108318800I-87900J0D01*
G01*
X118002100Y-108318800D01*
G75*
G02*
X117914200Y-108230900I0J87900D01*
G01*
G37*
G36*
G01*
X117414200Y-108230900D02*
X117414200Y-107480100D01*
G75*
G02*
X117502100Y-107392200I87900J0D01*
G01*
X117677900Y-107392200D01*
G75*
G02*
X117765800Y-107480100I0J-87900D01*
G01*
X117765800Y-108230900D01*
G75*
G02*
X117677900Y-108318800I-87900J0D01*
G01*
X117502100Y-108318800D01*
G75*
G02*
X117414200Y-108230900I0J87900D01*
G01*
G37*
G36*
G01*
X116914200Y-108230900D02*
X116914200Y-107480100D01*
G75*
G02*
X117002100Y-107392200I87900J0D01*
G01*
X117177900Y-107392200D01*
G75*
G02*
X117265800Y-107480100I0J-87900D01*
G01*
X117265800Y-108230900D01*
G75*
G02*
X117177900Y-108318800I-87900J0D01*
G01*
X117002100Y-108318800D01*
G75*
G02*
X116914200Y-108230900I0J87900D01*
G01*
G37*
G36*
G01*
X116414200Y-108230900D02*
X116414200Y-107480100D01*
G75*
G02*
X116502100Y-107392200I87900J0D01*
G01*
X116677900Y-107392200D01*
G75*
G02*
X116765800Y-107480100I0J-87900D01*
G01*
X116765800Y-108230900D01*
G75*
G02*
X116677900Y-108318800I-87900J0D01*
G01*
X116502100Y-108318800D01*
G75*
G02*
X116414200Y-108230900I0J87900D01*
G01*
G37*
G36*
G01*
X115914200Y-108230900D02*
X115914200Y-107480100D01*
G75*
G02*
X116002100Y-107392200I87900J0D01*
G01*
X116177900Y-107392200D01*
G75*
G02*
X116265800Y-107480100I0J-87900D01*
G01*
X116265800Y-108230900D01*
G75*
G02*
X116177900Y-108318800I-87900J0D01*
G01*
X116002100Y-108318800D01*
G75*
G02*
X115914200Y-108230900I0J87900D01*
G01*
G37*
G36*
G01*
X115414200Y-108230900D02*
X115414200Y-107480100D01*
G75*
G02*
X115502100Y-107392200I87900J0D01*
G01*
X115677900Y-107392200D01*
G75*
G02*
X115765800Y-107480100I0J-87900D01*
G01*
X115765800Y-108230900D01*
G75*
G02*
X115677900Y-108318800I-87900J0D01*
G01*
X115502100Y-108318800D01*
G75*
G02*
X115414200Y-108230900I0J87900D01*
G01*
G37*
G36*
G01*
X114439200Y-107255900D02*
X114439200Y-107080100D01*
G75*
G02*
X114527100Y-106992200I87900J0D01*
G01*
X115277900Y-106992200D01*
G75*
G02*
X115365800Y-107080100I0J-87900D01*
G01*
X115365800Y-107255900D01*
G75*
G02*
X115277900Y-107343800I-87900J0D01*
G01*
X114527100Y-107343800D01*
G75*
G02*
X114439200Y-107255900I0J87900D01*
G01*
G37*
G36*
G01*
X114439200Y-106755900D02*
X114439200Y-106580100D01*
G75*
G02*
X114527100Y-106492200I87900J0D01*
G01*
X115277900Y-106492200D01*
G75*
G02*
X115365800Y-106580100I0J-87900D01*
G01*
X115365800Y-106755900D01*
G75*
G02*
X115277900Y-106843800I-87900J0D01*
G01*
X114527100Y-106843800D01*
G75*
G02*
X114439200Y-106755900I0J87900D01*
G01*
G37*
G36*
G01*
X114439200Y-106255900D02*
X114439200Y-106080100D01*
G75*
G02*
X114527100Y-105992200I87900J0D01*
G01*
X115277900Y-105992200D01*
G75*
G02*
X115365800Y-106080100I0J-87900D01*
G01*
X115365800Y-106255900D01*
G75*
G02*
X115277900Y-106343800I-87900J0D01*
G01*
X114527100Y-106343800D01*
G75*
G02*
X114439200Y-106255900I0J87900D01*
G01*
G37*
G36*
G01*
X114439200Y-105755900D02*
X114439200Y-105580100D01*
G75*
G02*
X114527100Y-105492200I87900J0D01*
G01*
X115277900Y-105492200D01*
G75*
G02*
X115365800Y-105580100I0J-87900D01*
G01*
X115365800Y-105755900D01*
G75*
G02*
X115277900Y-105843800I-87900J0D01*
G01*
X114527100Y-105843800D01*
G75*
G02*
X114439200Y-105755900I0J87900D01*
G01*
G37*
G36*
G01*
X114439200Y-105255900D02*
X114439200Y-105080100D01*
G75*
G02*
X114527100Y-104992200I87900J0D01*
G01*
X115277900Y-104992200D01*
G75*
G02*
X115365800Y-105080100I0J-87900D01*
G01*
X115365800Y-105255900D01*
G75*
G02*
X115277900Y-105343800I-87900J0D01*
G01*
X114527100Y-105343800D01*
G75*
G02*
X114439200Y-105255900I0J87900D01*
G01*
G37*
G36*
G01*
X114439200Y-104755900D02*
X114439200Y-104580100D01*
G75*
G02*
X114527100Y-104492200I87900J0D01*
G01*
X115277900Y-104492200D01*
G75*
G02*
X115365800Y-104580100I0J-87900D01*
G01*
X115365800Y-104755900D01*
G75*
G02*
X115277900Y-104843800I-87900J0D01*
G01*
X114527100Y-104843800D01*
G75*
G02*
X114439200Y-104755900I0J87900D01*
G01*
G37*
%TD*%
D10*
%TO.C,J102*%
X110490000Y-121920000D03*
X110490000Y-119380000D03*
X110490000Y-116840000D03*
X110490000Y-114300000D03*
X110490000Y-111760000D03*
X110490000Y-109220000D03*
X110490000Y-106680000D03*
X110490000Y-104140000D03*
X110490000Y-101600000D03*
X110490000Y-99060000D03*
X110490000Y-96520000D03*
G36*
G01*
X111390800Y-93130000D02*
X111390800Y-94830000D01*
G75*
G02*
X111340000Y-94880800I-50800J0D01*
G01*
X109640000Y-94880800D01*
G75*
G02*
X109589200Y-94830000I0J50800D01*
G01*
X109589200Y-93130000D01*
G75*
G02*
X109640000Y-93079200I50800J0D01*
G01*
X111340000Y-93079200D01*
G75*
G02*
X111390800Y-93130000I0J-50800D01*
G01*
G37*
%TD*%
M02*
