%TF.GenerationSoftware,KiCad,Pcbnew,5.1.6+dfsg1-1~bpo10+1*%
%TF.CreationDate,2020-06-11T12:11:48-07:00*%
%TF.ProjectId,samd11d14_usb-c,73616d64-3131-4643-9134-5f7573622d63,rev?*%
%TF.SameCoordinates,Original*%
%TF.FileFunction,Soldermask,Top*%
%TF.FilePolarity,Negative*%
%FSLAX46Y46*%
G04 Gerber Fmt 4.6, Leading zero omitted, Abs format (unit mm)*
G04 Created by KiCad (PCBNEW 5.1.6+dfsg1-1~bpo10+1) date 2020-06-11 12:11:48*
%MOMM*%
%LPD*%
G01*
G04 APERTURE LIST*
%ADD10R,2.701600X2.701600*%
%ADD11R,1.161600X0.751600*%
%ADD12R,1.701600X1.501600*%
%ADD13O,1.801600X1.801600*%
%ADD14R,1.801600X1.801600*%
%ADD15O,1.001600X1.801600*%
%ADD16O,1.001600X2.501600*%
%ADD17C,0.801600*%
G04 APERTURE END LIST*
D10*
%TO.C,U102*%
X116586000Y-104648000D03*
G36*
G01*
X115160200Y-103085900D02*
X115160200Y-102335100D01*
G75*
G02*
X115248100Y-102247200I87900J0D01*
G01*
X115423900Y-102247200D01*
G75*
G02*
X115511800Y-102335100I0J-87900D01*
G01*
X115511800Y-103085900D01*
G75*
G02*
X115423900Y-103173800I-87900J0D01*
G01*
X115248100Y-103173800D01*
G75*
G02*
X115160200Y-103085900I0J87900D01*
G01*
G37*
G36*
G01*
X115660200Y-103085900D02*
X115660200Y-102335100D01*
G75*
G02*
X115748100Y-102247200I87900J0D01*
G01*
X115923900Y-102247200D01*
G75*
G02*
X116011800Y-102335100I0J-87900D01*
G01*
X116011800Y-103085900D01*
G75*
G02*
X115923900Y-103173800I-87900J0D01*
G01*
X115748100Y-103173800D01*
G75*
G02*
X115660200Y-103085900I0J87900D01*
G01*
G37*
G36*
G01*
X116160200Y-103085900D02*
X116160200Y-102335100D01*
G75*
G02*
X116248100Y-102247200I87900J0D01*
G01*
X116423900Y-102247200D01*
G75*
G02*
X116511800Y-102335100I0J-87900D01*
G01*
X116511800Y-103085900D01*
G75*
G02*
X116423900Y-103173800I-87900J0D01*
G01*
X116248100Y-103173800D01*
G75*
G02*
X116160200Y-103085900I0J87900D01*
G01*
G37*
G36*
G01*
X116660200Y-103085900D02*
X116660200Y-102335100D01*
G75*
G02*
X116748100Y-102247200I87900J0D01*
G01*
X116923900Y-102247200D01*
G75*
G02*
X117011800Y-102335100I0J-87900D01*
G01*
X117011800Y-103085900D01*
G75*
G02*
X116923900Y-103173800I-87900J0D01*
G01*
X116748100Y-103173800D01*
G75*
G02*
X116660200Y-103085900I0J87900D01*
G01*
G37*
G36*
G01*
X117160200Y-103085900D02*
X117160200Y-102335100D01*
G75*
G02*
X117248100Y-102247200I87900J0D01*
G01*
X117423900Y-102247200D01*
G75*
G02*
X117511800Y-102335100I0J-87900D01*
G01*
X117511800Y-103085900D01*
G75*
G02*
X117423900Y-103173800I-87900J0D01*
G01*
X117248100Y-103173800D01*
G75*
G02*
X117160200Y-103085900I0J87900D01*
G01*
G37*
G36*
G01*
X117660200Y-103085900D02*
X117660200Y-102335100D01*
G75*
G02*
X117748100Y-102247200I87900J0D01*
G01*
X117923900Y-102247200D01*
G75*
G02*
X118011800Y-102335100I0J-87900D01*
G01*
X118011800Y-103085900D01*
G75*
G02*
X117923900Y-103173800I-87900J0D01*
G01*
X117748100Y-103173800D01*
G75*
G02*
X117660200Y-103085900I0J87900D01*
G01*
G37*
G36*
G01*
X118060200Y-103485900D02*
X118060200Y-103310100D01*
G75*
G02*
X118148100Y-103222200I87900J0D01*
G01*
X118898900Y-103222200D01*
G75*
G02*
X118986800Y-103310100I0J-87900D01*
G01*
X118986800Y-103485900D01*
G75*
G02*
X118898900Y-103573800I-87900J0D01*
G01*
X118148100Y-103573800D01*
G75*
G02*
X118060200Y-103485900I0J87900D01*
G01*
G37*
G36*
G01*
X118060200Y-103985900D02*
X118060200Y-103810100D01*
G75*
G02*
X118148100Y-103722200I87900J0D01*
G01*
X118898900Y-103722200D01*
G75*
G02*
X118986800Y-103810100I0J-87900D01*
G01*
X118986800Y-103985900D01*
G75*
G02*
X118898900Y-104073800I-87900J0D01*
G01*
X118148100Y-104073800D01*
G75*
G02*
X118060200Y-103985900I0J87900D01*
G01*
G37*
G36*
G01*
X118060200Y-104485900D02*
X118060200Y-104310100D01*
G75*
G02*
X118148100Y-104222200I87900J0D01*
G01*
X118898900Y-104222200D01*
G75*
G02*
X118986800Y-104310100I0J-87900D01*
G01*
X118986800Y-104485900D01*
G75*
G02*
X118898900Y-104573800I-87900J0D01*
G01*
X118148100Y-104573800D01*
G75*
G02*
X118060200Y-104485900I0J87900D01*
G01*
G37*
G36*
G01*
X118060200Y-104985900D02*
X118060200Y-104810100D01*
G75*
G02*
X118148100Y-104722200I87900J0D01*
G01*
X118898900Y-104722200D01*
G75*
G02*
X118986800Y-104810100I0J-87900D01*
G01*
X118986800Y-104985900D01*
G75*
G02*
X118898900Y-105073800I-87900J0D01*
G01*
X118148100Y-105073800D01*
G75*
G02*
X118060200Y-104985900I0J87900D01*
G01*
G37*
G36*
G01*
X118060200Y-105485900D02*
X118060200Y-105310100D01*
G75*
G02*
X118148100Y-105222200I87900J0D01*
G01*
X118898900Y-105222200D01*
G75*
G02*
X118986800Y-105310100I0J-87900D01*
G01*
X118986800Y-105485900D01*
G75*
G02*
X118898900Y-105573800I-87900J0D01*
G01*
X118148100Y-105573800D01*
G75*
G02*
X118060200Y-105485900I0J87900D01*
G01*
G37*
G36*
G01*
X118060200Y-105985900D02*
X118060200Y-105810100D01*
G75*
G02*
X118148100Y-105722200I87900J0D01*
G01*
X118898900Y-105722200D01*
G75*
G02*
X118986800Y-105810100I0J-87900D01*
G01*
X118986800Y-105985900D01*
G75*
G02*
X118898900Y-106073800I-87900J0D01*
G01*
X118148100Y-106073800D01*
G75*
G02*
X118060200Y-105985900I0J87900D01*
G01*
G37*
G36*
G01*
X117660200Y-106960900D02*
X117660200Y-106210100D01*
G75*
G02*
X117748100Y-106122200I87900J0D01*
G01*
X117923900Y-106122200D01*
G75*
G02*
X118011800Y-106210100I0J-87900D01*
G01*
X118011800Y-106960900D01*
G75*
G02*
X117923900Y-107048800I-87900J0D01*
G01*
X117748100Y-107048800D01*
G75*
G02*
X117660200Y-106960900I0J87900D01*
G01*
G37*
G36*
G01*
X117160200Y-106960900D02*
X117160200Y-106210100D01*
G75*
G02*
X117248100Y-106122200I87900J0D01*
G01*
X117423900Y-106122200D01*
G75*
G02*
X117511800Y-106210100I0J-87900D01*
G01*
X117511800Y-106960900D01*
G75*
G02*
X117423900Y-107048800I-87900J0D01*
G01*
X117248100Y-107048800D01*
G75*
G02*
X117160200Y-106960900I0J87900D01*
G01*
G37*
G36*
G01*
X116660200Y-106960900D02*
X116660200Y-106210100D01*
G75*
G02*
X116748100Y-106122200I87900J0D01*
G01*
X116923900Y-106122200D01*
G75*
G02*
X117011800Y-106210100I0J-87900D01*
G01*
X117011800Y-106960900D01*
G75*
G02*
X116923900Y-107048800I-87900J0D01*
G01*
X116748100Y-107048800D01*
G75*
G02*
X116660200Y-106960900I0J87900D01*
G01*
G37*
G36*
G01*
X116160200Y-106960900D02*
X116160200Y-106210100D01*
G75*
G02*
X116248100Y-106122200I87900J0D01*
G01*
X116423900Y-106122200D01*
G75*
G02*
X116511800Y-106210100I0J-87900D01*
G01*
X116511800Y-106960900D01*
G75*
G02*
X116423900Y-107048800I-87900J0D01*
G01*
X116248100Y-107048800D01*
G75*
G02*
X116160200Y-106960900I0J87900D01*
G01*
G37*
G36*
G01*
X115660200Y-106960900D02*
X115660200Y-106210100D01*
G75*
G02*
X115748100Y-106122200I87900J0D01*
G01*
X115923900Y-106122200D01*
G75*
G02*
X116011800Y-106210100I0J-87900D01*
G01*
X116011800Y-106960900D01*
G75*
G02*
X115923900Y-107048800I-87900J0D01*
G01*
X115748100Y-107048800D01*
G75*
G02*
X115660200Y-106960900I0J87900D01*
G01*
G37*
G36*
G01*
X115160200Y-106960900D02*
X115160200Y-106210100D01*
G75*
G02*
X115248100Y-106122200I87900J0D01*
G01*
X115423900Y-106122200D01*
G75*
G02*
X115511800Y-106210100I0J-87900D01*
G01*
X115511800Y-106960900D01*
G75*
G02*
X115423900Y-107048800I-87900J0D01*
G01*
X115248100Y-107048800D01*
G75*
G02*
X115160200Y-106960900I0J87900D01*
G01*
G37*
G36*
G01*
X114185200Y-105985900D02*
X114185200Y-105810100D01*
G75*
G02*
X114273100Y-105722200I87900J0D01*
G01*
X115023900Y-105722200D01*
G75*
G02*
X115111800Y-105810100I0J-87900D01*
G01*
X115111800Y-105985900D01*
G75*
G02*
X115023900Y-106073800I-87900J0D01*
G01*
X114273100Y-106073800D01*
G75*
G02*
X114185200Y-105985900I0J87900D01*
G01*
G37*
G36*
G01*
X114185200Y-105485900D02*
X114185200Y-105310100D01*
G75*
G02*
X114273100Y-105222200I87900J0D01*
G01*
X115023900Y-105222200D01*
G75*
G02*
X115111800Y-105310100I0J-87900D01*
G01*
X115111800Y-105485900D01*
G75*
G02*
X115023900Y-105573800I-87900J0D01*
G01*
X114273100Y-105573800D01*
G75*
G02*
X114185200Y-105485900I0J87900D01*
G01*
G37*
G36*
G01*
X114185200Y-104985900D02*
X114185200Y-104810100D01*
G75*
G02*
X114273100Y-104722200I87900J0D01*
G01*
X115023900Y-104722200D01*
G75*
G02*
X115111800Y-104810100I0J-87900D01*
G01*
X115111800Y-104985900D01*
G75*
G02*
X115023900Y-105073800I-87900J0D01*
G01*
X114273100Y-105073800D01*
G75*
G02*
X114185200Y-104985900I0J87900D01*
G01*
G37*
G36*
G01*
X114185200Y-104485900D02*
X114185200Y-104310100D01*
G75*
G02*
X114273100Y-104222200I87900J0D01*
G01*
X115023900Y-104222200D01*
G75*
G02*
X115111800Y-104310100I0J-87900D01*
G01*
X115111800Y-104485900D01*
G75*
G02*
X115023900Y-104573800I-87900J0D01*
G01*
X114273100Y-104573800D01*
G75*
G02*
X114185200Y-104485900I0J87900D01*
G01*
G37*
G36*
G01*
X114185200Y-103985900D02*
X114185200Y-103810100D01*
G75*
G02*
X114273100Y-103722200I87900J0D01*
G01*
X115023900Y-103722200D01*
G75*
G02*
X115111800Y-103810100I0J-87900D01*
G01*
X115111800Y-103985900D01*
G75*
G02*
X115023900Y-104073800I-87900J0D01*
G01*
X114273100Y-104073800D01*
G75*
G02*
X114185200Y-103985900I0J87900D01*
G01*
G37*
G36*
G01*
X114185200Y-103485900D02*
X114185200Y-103310100D01*
G75*
G02*
X114273100Y-103222200I87900J0D01*
G01*
X115023900Y-103222200D01*
G75*
G02*
X115111800Y-103310100I0J-87900D01*
G01*
X115111800Y-103485900D01*
G75*
G02*
X115023900Y-103573800I-87900J0D01*
G01*
X114273100Y-103573800D01*
G75*
G02*
X114185200Y-103485900I0J87900D01*
G01*
G37*
%TD*%
D11*
%TO.C,U101*%
X117813000Y-110937000D03*
X117813000Y-112837000D03*
X115613000Y-112837000D03*
X115613000Y-111887000D03*
X115613000Y-110937000D03*
%TD*%
D12*
%TO.C,SW101*%
X120440000Y-93496000D03*
X113240000Y-93496000D03*
X120440000Y-96496000D03*
X113240000Y-96496000D03*
%TD*%
%TO.C,R106*%
G36*
G01*
X121276100Y-110281200D02*
X121801900Y-110281200D01*
G75*
G02*
X122064800Y-110544100I0J-262900D01*
G01*
X122064800Y-111169900D01*
G75*
G02*
X121801900Y-111432800I-262900J0D01*
G01*
X121276100Y-111432800D01*
G75*
G02*
X121013200Y-111169900I0J262900D01*
G01*
X121013200Y-110544100D01*
G75*
G02*
X121276100Y-110281200I262900J0D01*
G01*
G37*
G36*
G01*
X121276100Y-108531200D02*
X121801900Y-108531200D01*
G75*
G02*
X122064800Y-108794100I0J-262900D01*
G01*
X122064800Y-109419900D01*
G75*
G02*
X121801900Y-109682800I-262900J0D01*
G01*
X121276100Y-109682800D01*
G75*
G02*
X121013200Y-109419900I0J262900D01*
G01*
X121013200Y-108794100D01*
G75*
G02*
X121276100Y-108531200I262900J0D01*
G01*
G37*
%TD*%
%TO.C,R105*%
G36*
G01*
X122182900Y-98887800D02*
X121657100Y-98887800D01*
G75*
G02*
X121394200Y-98624900I0J262900D01*
G01*
X121394200Y-97999100D01*
G75*
G02*
X121657100Y-97736200I262900J0D01*
G01*
X122182900Y-97736200D01*
G75*
G02*
X122445800Y-97999100I0J-262900D01*
G01*
X122445800Y-98624900D01*
G75*
G02*
X122182900Y-98887800I-262900J0D01*
G01*
G37*
G36*
G01*
X122182900Y-100637800D02*
X121657100Y-100637800D01*
G75*
G02*
X121394200Y-100374900I0J262900D01*
G01*
X121394200Y-99749100D01*
G75*
G02*
X121657100Y-99486200I262900J0D01*
G01*
X122182900Y-99486200D01*
G75*
G02*
X122445800Y-99749100I0J-262900D01*
G01*
X122445800Y-100374900D01*
G75*
G02*
X122182900Y-100637800I-262900J0D01*
G01*
G37*
%TD*%
%TO.C,R104*%
G36*
G01*
X122182900Y-102189800D02*
X121657100Y-102189800D01*
G75*
G02*
X121394200Y-101926900I0J262900D01*
G01*
X121394200Y-101301100D01*
G75*
G02*
X121657100Y-101038200I262900J0D01*
G01*
X122182900Y-101038200D01*
G75*
G02*
X122445800Y-101301100I0J-262900D01*
G01*
X122445800Y-101926900D01*
G75*
G02*
X122182900Y-102189800I-262900J0D01*
G01*
G37*
G36*
G01*
X122182900Y-103939800D02*
X121657100Y-103939800D01*
G75*
G02*
X121394200Y-103676900I0J262900D01*
G01*
X121394200Y-103051100D01*
G75*
G02*
X121657100Y-102788200I262900J0D01*
G01*
X122182900Y-102788200D01*
G75*
G02*
X122445800Y-103051100I0J-262900D01*
G01*
X122445800Y-103676900D01*
G75*
G02*
X122182900Y-103939800I-262900J0D01*
G01*
G37*
%TD*%
%TO.C,R103*%
G36*
G01*
X114254800Y-114799100D02*
X114254800Y-115324900D01*
G75*
G02*
X113991900Y-115587800I-262900J0D01*
G01*
X113366100Y-115587800D01*
G75*
G02*
X113103200Y-115324900I0J262900D01*
G01*
X113103200Y-114799100D01*
G75*
G02*
X113366100Y-114536200I262900J0D01*
G01*
X113991900Y-114536200D01*
G75*
G02*
X114254800Y-114799100I0J-262900D01*
G01*
G37*
G36*
G01*
X116004800Y-114799100D02*
X116004800Y-115324900D01*
G75*
G02*
X115741900Y-115587800I-262900J0D01*
G01*
X115116100Y-115587800D01*
G75*
G02*
X114853200Y-115324900I0J262900D01*
G01*
X114853200Y-114799100D01*
G75*
G02*
X115116100Y-114536200I262900J0D01*
G01*
X115741900Y-114536200D01*
G75*
G02*
X116004800Y-114799100I0J-262900D01*
G01*
G37*
%TD*%
%TO.C,R102*%
G36*
G01*
X119298200Y-115324900D02*
X119298200Y-114799100D01*
G75*
G02*
X119561100Y-114536200I262900J0D01*
G01*
X120186900Y-114536200D01*
G75*
G02*
X120449800Y-114799100I0J-262900D01*
G01*
X120449800Y-115324900D01*
G75*
G02*
X120186900Y-115587800I-262900J0D01*
G01*
X119561100Y-115587800D01*
G75*
G02*
X119298200Y-115324900I0J262900D01*
G01*
G37*
G36*
G01*
X117548200Y-115324900D02*
X117548200Y-114799100D01*
G75*
G02*
X117811100Y-114536200I262900J0D01*
G01*
X118436900Y-114536200D01*
G75*
G02*
X118699800Y-114799100I0J-262900D01*
G01*
X118699800Y-115324900D01*
G75*
G02*
X118436900Y-115587800I-262900J0D01*
G01*
X117811100Y-115587800D01*
G75*
G02*
X117548200Y-115324900I0J262900D01*
G01*
G37*
%TD*%
%TO.C,R101*%
G36*
G01*
X112657900Y-111587800D02*
X112132100Y-111587800D01*
G75*
G02*
X111869200Y-111324900I0J262900D01*
G01*
X111869200Y-110699100D01*
G75*
G02*
X112132100Y-110436200I262900J0D01*
G01*
X112657900Y-110436200D01*
G75*
G02*
X112920800Y-110699100I0J-262900D01*
G01*
X112920800Y-111324900D01*
G75*
G02*
X112657900Y-111587800I-262900J0D01*
G01*
G37*
G36*
G01*
X112657900Y-113337800D02*
X112132100Y-113337800D01*
G75*
G02*
X111869200Y-113074900I0J262900D01*
G01*
X111869200Y-112449100D01*
G75*
G02*
X112132100Y-112186200I262900J0D01*
G01*
X112657900Y-112186200D01*
G75*
G02*
X112920800Y-112449100I0J-262900D01*
G01*
X112920800Y-113074900D01*
G75*
G02*
X112657900Y-113337800I-262900J0D01*
G01*
G37*
%TD*%
D13*
%TO.C,J103*%
X124460000Y-93980000D03*
X124460000Y-96520000D03*
X124460000Y-99060000D03*
X124460000Y-101600000D03*
X124460000Y-104140000D03*
X124460000Y-106680000D03*
X124460000Y-109220000D03*
X124460000Y-111760000D03*
X124460000Y-114300000D03*
X124460000Y-116840000D03*
X124460000Y-119380000D03*
D14*
X124460000Y-121920000D03*
%TD*%
D13*
%TO.C,J102*%
X109220000Y-121920000D03*
X109220000Y-119380000D03*
X109220000Y-116840000D03*
X109220000Y-114300000D03*
X109220000Y-111760000D03*
X109220000Y-109220000D03*
X109220000Y-106680000D03*
X109220000Y-104140000D03*
X109220000Y-101600000D03*
X109220000Y-99060000D03*
X109220000Y-96520000D03*
D14*
X109220000Y-93980000D03*
%TD*%
D15*
%TO.C,J101*%
X121092000Y-121962000D03*
X112442000Y-121962000D03*
D16*
X121092000Y-118582000D03*
X112442000Y-118582000D03*
D17*
X117192000Y-118952000D03*
X119742000Y-118952000D03*
X118892000Y-118952000D03*
X118042000Y-118952000D03*
X113792000Y-118952000D03*
X115492000Y-118952000D03*
X116342000Y-118952000D03*
X114642000Y-118952000D03*
X119742000Y-117602000D03*
X118892000Y-117602000D03*
X118042000Y-117602000D03*
X117192000Y-117602000D03*
X116342000Y-117602000D03*
X115492000Y-117602000D03*
X114642000Y-117602000D03*
X113792000Y-117602000D03*
%TD*%
%TO.C,D101*%
G36*
G01*
X122144714Y-105899800D02*
X121187286Y-105899800D01*
G75*
G02*
X120915200Y-105627714I0J272086D01*
G01*
X120915200Y-104920286D01*
G75*
G02*
X121187286Y-104648200I272086J0D01*
G01*
X122144714Y-104648200D01*
G75*
G02*
X122416800Y-104920286I0J-272086D01*
G01*
X122416800Y-105627714D01*
G75*
G02*
X122144714Y-105899800I-272086J0D01*
G01*
G37*
G36*
G01*
X122144714Y-107949800D02*
X121187286Y-107949800D01*
G75*
G02*
X120915200Y-107677714I0J272086D01*
G01*
X120915200Y-106970286D01*
G75*
G02*
X121187286Y-106698200I272086J0D01*
G01*
X122144714Y-106698200D01*
G75*
G02*
X122416800Y-106970286I0J-272086D01*
G01*
X122416800Y-107677714D01*
G75*
G02*
X122144714Y-107949800I-272086J0D01*
G01*
G37*
%TD*%
%TO.C,C104*%
G36*
G01*
X120658900Y-98887800D02*
X120133100Y-98887800D01*
G75*
G02*
X119870200Y-98624900I0J262900D01*
G01*
X119870200Y-97999100D01*
G75*
G02*
X120133100Y-97736200I262900J0D01*
G01*
X120658900Y-97736200D01*
G75*
G02*
X120921800Y-97999100I0J-262900D01*
G01*
X120921800Y-98624900D01*
G75*
G02*
X120658900Y-98887800I-262900J0D01*
G01*
G37*
G36*
G01*
X120658900Y-100637800D02*
X120133100Y-100637800D01*
G75*
G02*
X119870200Y-100374900I0J262900D01*
G01*
X119870200Y-99749100D01*
G75*
G02*
X120133100Y-99486200I262900J0D01*
G01*
X120658900Y-99486200D01*
G75*
G02*
X120921800Y-99749100I0J-262900D01*
G01*
X120921800Y-100374900D01*
G75*
G02*
X120658900Y-100637800I-262900J0D01*
G01*
G37*
%TD*%
%TO.C,C103*%
G36*
G01*
X113837200Y-98687900D02*
X113837200Y-98162100D01*
G75*
G02*
X114100100Y-97899200I262900J0D01*
G01*
X114725900Y-97899200D01*
G75*
G02*
X114988800Y-98162100I0J-262900D01*
G01*
X114988800Y-98687900D01*
G75*
G02*
X114725900Y-98950800I-262900J0D01*
G01*
X114100100Y-98950800D01*
G75*
G02*
X113837200Y-98687900I0J262900D01*
G01*
G37*
G36*
G01*
X112087200Y-98687900D02*
X112087200Y-98162100D01*
G75*
G02*
X112350100Y-97899200I262900J0D01*
G01*
X112975900Y-97899200D01*
G75*
G02*
X113238800Y-98162100I0J-262900D01*
G01*
X113238800Y-98687900D01*
G75*
G02*
X112975900Y-98950800I-262900J0D01*
G01*
X112350100Y-98950800D01*
G75*
G02*
X112087200Y-98687900I0J262900D01*
G01*
G37*
%TD*%
%TO.C,C102*%
G36*
G01*
X119896900Y-111587800D02*
X119371100Y-111587800D01*
G75*
G02*
X119108200Y-111324900I0J262900D01*
G01*
X119108200Y-110699100D01*
G75*
G02*
X119371100Y-110436200I262900J0D01*
G01*
X119896900Y-110436200D01*
G75*
G02*
X120159800Y-110699100I0J-262900D01*
G01*
X120159800Y-111324900D01*
G75*
G02*
X119896900Y-111587800I-262900J0D01*
G01*
G37*
G36*
G01*
X119896900Y-113337800D02*
X119371100Y-113337800D01*
G75*
G02*
X119108200Y-113074900I0J262900D01*
G01*
X119108200Y-112449100D01*
G75*
G02*
X119371100Y-112186200I262900J0D01*
G01*
X119896900Y-112186200D01*
G75*
G02*
X120159800Y-112449100I0J-262900D01*
G01*
X120159800Y-113074900D01*
G75*
G02*
X119896900Y-113337800I-262900J0D01*
G01*
G37*
%TD*%
%TO.C,C101*%
G36*
G01*
X113656100Y-112186200D02*
X114181900Y-112186200D01*
G75*
G02*
X114444800Y-112449100I0J-262900D01*
G01*
X114444800Y-113074900D01*
G75*
G02*
X114181900Y-113337800I-262900J0D01*
G01*
X113656100Y-113337800D01*
G75*
G02*
X113393200Y-113074900I0J262900D01*
G01*
X113393200Y-112449100D01*
G75*
G02*
X113656100Y-112186200I262900J0D01*
G01*
G37*
G36*
G01*
X113656100Y-110436200D02*
X114181900Y-110436200D01*
G75*
G02*
X114444800Y-110699100I0J-262900D01*
G01*
X114444800Y-111324900D01*
G75*
G02*
X114181900Y-111587800I-262900J0D01*
G01*
X113656100Y-111587800D01*
G75*
G02*
X113393200Y-111324900I0J262900D01*
G01*
X113393200Y-110699100D01*
G75*
G02*
X113656100Y-110436200I262900J0D01*
G01*
G37*
%TD*%
M02*
