M48
; DRILL file {KiCad 5.1.6+dfsg1-1~bpo10+1} date Thu Jun 11 12:10:01 2020
; FORMAT={-:-/ absolute / inch / decimal}
; #@! TF.CreationDate,2020-06-11T12:10:01-07:00
; #@! TF.GenerationSoftware,Kicad,Pcbnew,5.1.6+dfsg1-1~bpo10+1
FMAT,2
INCH
T1C0.0157
T2C0.0197
T3C0.0236
T4C0.0394
%
G90
G05
T1
X4.48Y-4.63
X4.48Y-4.6831
X4.5135Y-4.63
X4.5135Y-4.6831
X4.5469Y-4.63
X4.5469Y-4.6831
X4.5804Y-4.63
X4.5804Y-4.6831
X4.6139Y-4.63
X4.6139Y-4.6831
X4.6473Y-4.63
X4.6473Y-4.6831
X4.6808Y-4.63
X4.6808Y-4.6831
X4.7143Y-4.63
X4.7143Y-4.6831
T2
X4.465Y-3.94
X4.515Y-3.68
X4.5347Y-3.9848
X4.545Y-4.32
X4.55Y-4.48
X4.555Y-3.875
X4.5717Y-3.9789
X4.5928Y-3.9479
X4.6285Y-3.8584
X4.64Y-4.27
X4.68Y-3.92
X4.685Y-3.68
X4.685Y-3.87
X4.7006Y-4.1311
X4.71Y-4.315
X4.72Y-4.275
X4.7318Y-4.0891
X4.7344Y-4.1472
X4.735Y-4.015
X4.735Y-4.185
X4.735Y-4.24
X4.745Y-4.565
X4.8449Y-4.3967
T4
X4.9Y-3.7
X4.9Y-3.8
X4.9Y-3.9
X4.9Y-4.0
X4.9Y-4.1
X4.9Y-4.2
X4.9Y-4.3
X4.9Y-4.4
X4.9Y-4.5
X4.9Y-4.6
X4.9Y-4.7
X4.9Y-4.8
X4.3Y-3.7
X4.3Y-3.8
X4.3Y-3.9
X4.3Y-4.0
X4.3Y-4.1
X4.3Y-4.2
X4.3Y-4.3
X4.3Y-4.4
X4.3Y-4.5
X4.3Y-4.6
X4.3Y-4.7
X4.3Y-4.8
T3
G00X4.4269Y-4.6391
M15
G01X4.4269Y-4.6981
M16
G05
G00X4.4269Y-4.7859
M15
G01X4.4269Y-4.8174
M16
G05
G00X4.7674Y-4.6391
M15
G01X4.7674Y-4.6981
M16
G05
G00X4.7674Y-4.7859
M15
G01X4.7674Y-4.8174
M16
G05
T0
M30
