%TF.GenerationSoftware,KiCad,Pcbnew,5.1.6+dfsg1-1~bpo10+1*%
%TF.CreationDate,2020-06-11T12:11:48-07:00*%
%TF.ProjectId,samd11d14_usb-c,73616d64-3131-4643-9134-5f7573622d63,rev?*%
%TF.SameCoordinates,Original*%
%TF.FileFunction,Paste,Top*%
%TF.FilePolarity,Positive*%
%FSLAX46Y46*%
G04 Gerber Fmt 4.6, Leading zero omitted, Abs format (unit mm)*
G04 Created by KiCad (PCBNEW 5.1.6+dfsg1-1~bpo10+1) date 2020-06-11 12:11:48*
%MOMM*%
%LPD*%
G01*
G04 APERTURE LIST*
%ADD10R,1.060000X0.650000*%
%ADD11R,1.600000X1.400000*%
G04 APERTURE END LIST*
%TO.C,U102*%
G36*
G01*
X116711000Y-105573001D02*
X116711000Y-105022999D01*
G75*
G02*
X116960999Y-104773000I249999J0D01*
G01*
X117511001Y-104773000D01*
G75*
G02*
X117761000Y-105022999I0J-249999D01*
G01*
X117761000Y-105573001D01*
G75*
G02*
X117511001Y-105823000I-249999J0D01*
G01*
X116960999Y-105823000D01*
G75*
G02*
X116711000Y-105573001I0J249999D01*
G01*
G37*
G36*
G01*
X116711000Y-104273001D02*
X116711000Y-103722999D01*
G75*
G02*
X116960999Y-103473000I249999J0D01*
G01*
X117511001Y-103473000D01*
G75*
G02*
X117761000Y-103722999I0J-249999D01*
G01*
X117761000Y-104273001D01*
G75*
G02*
X117511001Y-104523000I-249999J0D01*
G01*
X116960999Y-104523000D01*
G75*
G02*
X116711000Y-104273001I0J249999D01*
G01*
G37*
G36*
G01*
X115411000Y-105573001D02*
X115411000Y-105022999D01*
G75*
G02*
X115660999Y-104773000I249999J0D01*
G01*
X116211001Y-104773000D01*
G75*
G02*
X116461000Y-105022999I0J-249999D01*
G01*
X116461000Y-105573001D01*
G75*
G02*
X116211001Y-105823000I-249999J0D01*
G01*
X115660999Y-105823000D01*
G75*
G02*
X115411000Y-105573001I0J249999D01*
G01*
G37*
G36*
G01*
X115411000Y-104273001D02*
X115411000Y-103722999D01*
G75*
G02*
X115660999Y-103473000I249999J0D01*
G01*
X116211001Y-103473000D01*
G75*
G02*
X116461000Y-103722999I0J-249999D01*
G01*
X116461000Y-104273001D01*
G75*
G02*
X116211001Y-104523000I-249999J0D01*
G01*
X115660999Y-104523000D01*
G75*
G02*
X115411000Y-104273001I0J249999D01*
G01*
G37*
G36*
G01*
X115211000Y-103060500D02*
X115211000Y-102360500D01*
G75*
G02*
X115273500Y-102298000I62500J0D01*
G01*
X115398500Y-102298000D01*
G75*
G02*
X115461000Y-102360500I0J-62500D01*
G01*
X115461000Y-103060500D01*
G75*
G02*
X115398500Y-103123000I-62500J0D01*
G01*
X115273500Y-103123000D01*
G75*
G02*
X115211000Y-103060500I0J62500D01*
G01*
G37*
G36*
G01*
X115711000Y-103060500D02*
X115711000Y-102360500D01*
G75*
G02*
X115773500Y-102298000I62500J0D01*
G01*
X115898500Y-102298000D01*
G75*
G02*
X115961000Y-102360500I0J-62500D01*
G01*
X115961000Y-103060500D01*
G75*
G02*
X115898500Y-103123000I-62500J0D01*
G01*
X115773500Y-103123000D01*
G75*
G02*
X115711000Y-103060500I0J62500D01*
G01*
G37*
G36*
G01*
X116211000Y-103060500D02*
X116211000Y-102360500D01*
G75*
G02*
X116273500Y-102298000I62500J0D01*
G01*
X116398500Y-102298000D01*
G75*
G02*
X116461000Y-102360500I0J-62500D01*
G01*
X116461000Y-103060500D01*
G75*
G02*
X116398500Y-103123000I-62500J0D01*
G01*
X116273500Y-103123000D01*
G75*
G02*
X116211000Y-103060500I0J62500D01*
G01*
G37*
G36*
G01*
X116711000Y-103060500D02*
X116711000Y-102360500D01*
G75*
G02*
X116773500Y-102298000I62500J0D01*
G01*
X116898500Y-102298000D01*
G75*
G02*
X116961000Y-102360500I0J-62500D01*
G01*
X116961000Y-103060500D01*
G75*
G02*
X116898500Y-103123000I-62500J0D01*
G01*
X116773500Y-103123000D01*
G75*
G02*
X116711000Y-103060500I0J62500D01*
G01*
G37*
G36*
G01*
X117211000Y-103060500D02*
X117211000Y-102360500D01*
G75*
G02*
X117273500Y-102298000I62500J0D01*
G01*
X117398500Y-102298000D01*
G75*
G02*
X117461000Y-102360500I0J-62500D01*
G01*
X117461000Y-103060500D01*
G75*
G02*
X117398500Y-103123000I-62500J0D01*
G01*
X117273500Y-103123000D01*
G75*
G02*
X117211000Y-103060500I0J62500D01*
G01*
G37*
G36*
G01*
X117711000Y-103060500D02*
X117711000Y-102360500D01*
G75*
G02*
X117773500Y-102298000I62500J0D01*
G01*
X117898500Y-102298000D01*
G75*
G02*
X117961000Y-102360500I0J-62500D01*
G01*
X117961000Y-103060500D01*
G75*
G02*
X117898500Y-103123000I-62500J0D01*
G01*
X117773500Y-103123000D01*
G75*
G02*
X117711000Y-103060500I0J62500D01*
G01*
G37*
G36*
G01*
X118111000Y-103460500D02*
X118111000Y-103335500D01*
G75*
G02*
X118173500Y-103273000I62500J0D01*
G01*
X118873500Y-103273000D01*
G75*
G02*
X118936000Y-103335500I0J-62500D01*
G01*
X118936000Y-103460500D01*
G75*
G02*
X118873500Y-103523000I-62500J0D01*
G01*
X118173500Y-103523000D01*
G75*
G02*
X118111000Y-103460500I0J62500D01*
G01*
G37*
G36*
G01*
X118111000Y-103960500D02*
X118111000Y-103835500D01*
G75*
G02*
X118173500Y-103773000I62500J0D01*
G01*
X118873500Y-103773000D01*
G75*
G02*
X118936000Y-103835500I0J-62500D01*
G01*
X118936000Y-103960500D01*
G75*
G02*
X118873500Y-104023000I-62500J0D01*
G01*
X118173500Y-104023000D01*
G75*
G02*
X118111000Y-103960500I0J62500D01*
G01*
G37*
G36*
G01*
X118111000Y-104460500D02*
X118111000Y-104335500D01*
G75*
G02*
X118173500Y-104273000I62500J0D01*
G01*
X118873500Y-104273000D01*
G75*
G02*
X118936000Y-104335500I0J-62500D01*
G01*
X118936000Y-104460500D01*
G75*
G02*
X118873500Y-104523000I-62500J0D01*
G01*
X118173500Y-104523000D01*
G75*
G02*
X118111000Y-104460500I0J62500D01*
G01*
G37*
G36*
G01*
X118111000Y-104960500D02*
X118111000Y-104835500D01*
G75*
G02*
X118173500Y-104773000I62500J0D01*
G01*
X118873500Y-104773000D01*
G75*
G02*
X118936000Y-104835500I0J-62500D01*
G01*
X118936000Y-104960500D01*
G75*
G02*
X118873500Y-105023000I-62500J0D01*
G01*
X118173500Y-105023000D01*
G75*
G02*
X118111000Y-104960500I0J62500D01*
G01*
G37*
G36*
G01*
X118111000Y-105460500D02*
X118111000Y-105335500D01*
G75*
G02*
X118173500Y-105273000I62500J0D01*
G01*
X118873500Y-105273000D01*
G75*
G02*
X118936000Y-105335500I0J-62500D01*
G01*
X118936000Y-105460500D01*
G75*
G02*
X118873500Y-105523000I-62500J0D01*
G01*
X118173500Y-105523000D01*
G75*
G02*
X118111000Y-105460500I0J62500D01*
G01*
G37*
G36*
G01*
X118111000Y-105960500D02*
X118111000Y-105835500D01*
G75*
G02*
X118173500Y-105773000I62500J0D01*
G01*
X118873500Y-105773000D01*
G75*
G02*
X118936000Y-105835500I0J-62500D01*
G01*
X118936000Y-105960500D01*
G75*
G02*
X118873500Y-106023000I-62500J0D01*
G01*
X118173500Y-106023000D01*
G75*
G02*
X118111000Y-105960500I0J62500D01*
G01*
G37*
G36*
G01*
X117711000Y-106935500D02*
X117711000Y-106235500D01*
G75*
G02*
X117773500Y-106173000I62500J0D01*
G01*
X117898500Y-106173000D01*
G75*
G02*
X117961000Y-106235500I0J-62500D01*
G01*
X117961000Y-106935500D01*
G75*
G02*
X117898500Y-106998000I-62500J0D01*
G01*
X117773500Y-106998000D01*
G75*
G02*
X117711000Y-106935500I0J62500D01*
G01*
G37*
G36*
G01*
X117211000Y-106935500D02*
X117211000Y-106235500D01*
G75*
G02*
X117273500Y-106173000I62500J0D01*
G01*
X117398500Y-106173000D01*
G75*
G02*
X117461000Y-106235500I0J-62500D01*
G01*
X117461000Y-106935500D01*
G75*
G02*
X117398500Y-106998000I-62500J0D01*
G01*
X117273500Y-106998000D01*
G75*
G02*
X117211000Y-106935500I0J62500D01*
G01*
G37*
G36*
G01*
X116711000Y-106935500D02*
X116711000Y-106235500D01*
G75*
G02*
X116773500Y-106173000I62500J0D01*
G01*
X116898500Y-106173000D01*
G75*
G02*
X116961000Y-106235500I0J-62500D01*
G01*
X116961000Y-106935500D01*
G75*
G02*
X116898500Y-106998000I-62500J0D01*
G01*
X116773500Y-106998000D01*
G75*
G02*
X116711000Y-106935500I0J62500D01*
G01*
G37*
G36*
G01*
X116211000Y-106935500D02*
X116211000Y-106235500D01*
G75*
G02*
X116273500Y-106173000I62500J0D01*
G01*
X116398500Y-106173000D01*
G75*
G02*
X116461000Y-106235500I0J-62500D01*
G01*
X116461000Y-106935500D01*
G75*
G02*
X116398500Y-106998000I-62500J0D01*
G01*
X116273500Y-106998000D01*
G75*
G02*
X116211000Y-106935500I0J62500D01*
G01*
G37*
G36*
G01*
X115711000Y-106935500D02*
X115711000Y-106235500D01*
G75*
G02*
X115773500Y-106173000I62500J0D01*
G01*
X115898500Y-106173000D01*
G75*
G02*
X115961000Y-106235500I0J-62500D01*
G01*
X115961000Y-106935500D01*
G75*
G02*
X115898500Y-106998000I-62500J0D01*
G01*
X115773500Y-106998000D01*
G75*
G02*
X115711000Y-106935500I0J62500D01*
G01*
G37*
G36*
G01*
X115211000Y-106935500D02*
X115211000Y-106235500D01*
G75*
G02*
X115273500Y-106173000I62500J0D01*
G01*
X115398500Y-106173000D01*
G75*
G02*
X115461000Y-106235500I0J-62500D01*
G01*
X115461000Y-106935500D01*
G75*
G02*
X115398500Y-106998000I-62500J0D01*
G01*
X115273500Y-106998000D01*
G75*
G02*
X115211000Y-106935500I0J62500D01*
G01*
G37*
G36*
G01*
X114236000Y-105960500D02*
X114236000Y-105835500D01*
G75*
G02*
X114298500Y-105773000I62500J0D01*
G01*
X114998500Y-105773000D01*
G75*
G02*
X115061000Y-105835500I0J-62500D01*
G01*
X115061000Y-105960500D01*
G75*
G02*
X114998500Y-106023000I-62500J0D01*
G01*
X114298500Y-106023000D01*
G75*
G02*
X114236000Y-105960500I0J62500D01*
G01*
G37*
G36*
G01*
X114236000Y-105460500D02*
X114236000Y-105335500D01*
G75*
G02*
X114298500Y-105273000I62500J0D01*
G01*
X114998500Y-105273000D01*
G75*
G02*
X115061000Y-105335500I0J-62500D01*
G01*
X115061000Y-105460500D01*
G75*
G02*
X114998500Y-105523000I-62500J0D01*
G01*
X114298500Y-105523000D01*
G75*
G02*
X114236000Y-105460500I0J62500D01*
G01*
G37*
G36*
G01*
X114236000Y-104960500D02*
X114236000Y-104835500D01*
G75*
G02*
X114298500Y-104773000I62500J0D01*
G01*
X114998500Y-104773000D01*
G75*
G02*
X115061000Y-104835500I0J-62500D01*
G01*
X115061000Y-104960500D01*
G75*
G02*
X114998500Y-105023000I-62500J0D01*
G01*
X114298500Y-105023000D01*
G75*
G02*
X114236000Y-104960500I0J62500D01*
G01*
G37*
G36*
G01*
X114236000Y-104460500D02*
X114236000Y-104335500D01*
G75*
G02*
X114298500Y-104273000I62500J0D01*
G01*
X114998500Y-104273000D01*
G75*
G02*
X115061000Y-104335500I0J-62500D01*
G01*
X115061000Y-104460500D01*
G75*
G02*
X114998500Y-104523000I-62500J0D01*
G01*
X114298500Y-104523000D01*
G75*
G02*
X114236000Y-104460500I0J62500D01*
G01*
G37*
G36*
G01*
X114236000Y-103960500D02*
X114236000Y-103835500D01*
G75*
G02*
X114298500Y-103773000I62500J0D01*
G01*
X114998500Y-103773000D01*
G75*
G02*
X115061000Y-103835500I0J-62500D01*
G01*
X115061000Y-103960500D01*
G75*
G02*
X114998500Y-104023000I-62500J0D01*
G01*
X114298500Y-104023000D01*
G75*
G02*
X114236000Y-103960500I0J62500D01*
G01*
G37*
G36*
G01*
X114236000Y-103460500D02*
X114236000Y-103335500D01*
G75*
G02*
X114298500Y-103273000I62500J0D01*
G01*
X114998500Y-103273000D01*
G75*
G02*
X115061000Y-103335500I0J-62500D01*
G01*
X115061000Y-103460500D01*
G75*
G02*
X114998500Y-103523000I-62500J0D01*
G01*
X114298500Y-103523000D01*
G75*
G02*
X114236000Y-103460500I0J62500D01*
G01*
G37*
%TD*%
D10*
%TO.C,U101*%
X117813000Y-110937000D03*
X117813000Y-112837000D03*
X115613000Y-112837000D03*
X115613000Y-111887000D03*
X115613000Y-110937000D03*
%TD*%
D11*
%TO.C,SW101*%
X120440000Y-93496000D03*
X113240000Y-93496000D03*
X120440000Y-96496000D03*
X113240000Y-96496000D03*
%TD*%
%TO.C,R106*%
G36*
G01*
X121301500Y-110332000D02*
X121776500Y-110332000D01*
G75*
G02*
X122014000Y-110569500I0J-237500D01*
G01*
X122014000Y-111144500D01*
G75*
G02*
X121776500Y-111382000I-237500J0D01*
G01*
X121301500Y-111382000D01*
G75*
G02*
X121064000Y-111144500I0J237500D01*
G01*
X121064000Y-110569500D01*
G75*
G02*
X121301500Y-110332000I237500J0D01*
G01*
G37*
G36*
G01*
X121301500Y-108582000D02*
X121776500Y-108582000D01*
G75*
G02*
X122014000Y-108819500I0J-237500D01*
G01*
X122014000Y-109394500D01*
G75*
G02*
X121776500Y-109632000I-237500J0D01*
G01*
X121301500Y-109632000D01*
G75*
G02*
X121064000Y-109394500I0J237500D01*
G01*
X121064000Y-108819500D01*
G75*
G02*
X121301500Y-108582000I237500J0D01*
G01*
G37*
%TD*%
%TO.C,R105*%
G36*
G01*
X122157500Y-98837000D02*
X121682500Y-98837000D01*
G75*
G02*
X121445000Y-98599500I0J237500D01*
G01*
X121445000Y-98024500D01*
G75*
G02*
X121682500Y-97787000I237500J0D01*
G01*
X122157500Y-97787000D01*
G75*
G02*
X122395000Y-98024500I0J-237500D01*
G01*
X122395000Y-98599500D01*
G75*
G02*
X122157500Y-98837000I-237500J0D01*
G01*
G37*
G36*
G01*
X122157500Y-100587000D02*
X121682500Y-100587000D01*
G75*
G02*
X121445000Y-100349500I0J237500D01*
G01*
X121445000Y-99774500D01*
G75*
G02*
X121682500Y-99537000I237500J0D01*
G01*
X122157500Y-99537000D01*
G75*
G02*
X122395000Y-99774500I0J-237500D01*
G01*
X122395000Y-100349500D01*
G75*
G02*
X122157500Y-100587000I-237500J0D01*
G01*
G37*
%TD*%
%TO.C,R104*%
G36*
G01*
X122157500Y-102139000D02*
X121682500Y-102139000D01*
G75*
G02*
X121445000Y-101901500I0J237500D01*
G01*
X121445000Y-101326500D01*
G75*
G02*
X121682500Y-101089000I237500J0D01*
G01*
X122157500Y-101089000D01*
G75*
G02*
X122395000Y-101326500I0J-237500D01*
G01*
X122395000Y-101901500D01*
G75*
G02*
X122157500Y-102139000I-237500J0D01*
G01*
G37*
G36*
G01*
X122157500Y-103889000D02*
X121682500Y-103889000D01*
G75*
G02*
X121445000Y-103651500I0J237500D01*
G01*
X121445000Y-103076500D01*
G75*
G02*
X121682500Y-102839000I237500J0D01*
G01*
X122157500Y-102839000D01*
G75*
G02*
X122395000Y-103076500I0J-237500D01*
G01*
X122395000Y-103651500D01*
G75*
G02*
X122157500Y-103889000I-237500J0D01*
G01*
G37*
%TD*%
%TO.C,R103*%
G36*
G01*
X114204000Y-114824500D02*
X114204000Y-115299500D01*
G75*
G02*
X113966500Y-115537000I-237500J0D01*
G01*
X113391500Y-115537000D01*
G75*
G02*
X113154000Y-115299500I0J237500D01*
G01*
X113154000Y-114824500D01*
G75*
G02*
X113391500Y-114587000I237500J0D01*
G01*
X113966500Y-114587000D01*
G75*
G02*
X114204000Y-114824500I0J-237500D01*
G01*
G37*
G36*
G01*
X115954000Y-114824500D02*
X115954000Y-115299500D01*
G75*
G02*
X115716500Y-115537000I-237500J0D01*
G01*
X115141500Y-115537000D01*
G75*
G02*
X114904000Y-115299500I0J237500D01*
G01*
X114904000Y-114824500D01*
G75*
G02*
X115141500Y-114587000I237500J0D01*
G01*
X115716500Y-114587000D01*
G75*
G02*
X115954000Y-114824500I0J-237500D01*
G01*
G37*
%TD*%
%TO.C,R102*%
G36*
G01*
X119349000Y-115299500D02*
X119349000Y-114824500D01*
G75*
G02*
X119586500Y-114587000I237500J0D01*
G01*
X120161500Y-114587000D01*
G75*
G02*
X120399000Y-114824500I0J-237500D01*
G01*
X120399000Y-115299500D01*
G75*
G02*
X120161500Y-115537000I-237500J0D01*
G01*
X119586500Y-115537000D01*
G75*
G02*
X119349000Y-115299500I0J237500D01*
G01*
G37*
G36*
G01*
X117599000Y-115299500D02*
X117599000Y-114824500D01*
G75*
G02*
X117836500Y-114587000I237500J0D01*
G01*
X118411500Y-114587000D01*
G75*
G02*
X118649000Y-114824500I0J-237500D01*
G01*
X118649000Y-115299500D01*
G75*
G02*
X118411500Y-115537000I-237500J0D01*
G01*
X117836500Y-115537000D01*
G75*
G02*
X117599000Y-115299500I0J237500D01*
G01*
G37*
%TD*%
%TO.C,R101*%
G36*
G01*
X112632500Y-111537000D02*
X112157500Y-111537000D01*
G75*
G02*
X111920000Y-111299500I0J237500D01*
G01*
X111920000Y-110724500D01*
G75*
G02*
X112157500Y-110487000I237500J0D01*
G01*
X112632500Y-110487000D01*
G75*
G02*
X112870000Y-110724500I0J-237500D01*
G01*
X112870000Y-111299500D01*
G75*
G02*
X112632500Y-111537000I-237500J0D01*
G01*
G37*
G36*
G01*
X112632500Y-113287000D02*
X112157500Y-113287000D01*
G75*
G02*
X111920000Y-113049500I0J237500D01*
G01*
X111920000Y-112474500D01*
G75*
G02*
X112157500Y-112237000I237500J0D01*
G01*
X112632500Y-112237000D01*
G75*
G02*
X112870000Y-112474500I0J-237500D01*
G01*
X112870000Y-113049500D01*
G75*
G02*
X112632500Y-113287000I-237500J0D01*
G01*
G37*
%TD*%
%TO.C,D101*%
G36*
G01*
X122116001Y-105849000D02*
X121215999Y-105849000D01*
G75*
G02*
X120966000Y-105599001I0J249999D01*
G01*
X120966000Y-104948999D01*
G75*
G02*
X121215999Y-104699000I249999J0D01*
G01*
X122116001Y-104699000D01*
G75*
G02*
X122366000Y-104948999I0J-249999D01*
G01*
X122366000Y-105599001D01*
G75*
G02*
X122116001Y-105849000I-249999J0D01*
G01*
G37*
G36*
G01*
X122116001Y-107899000D02*
X121215999Y-107899000D01*
G75*
G02*
X120966000Y-107649001I0J249999D01*
G01*
X120966000Y-106998999D01*
G75*
G02*
X121215999Y-106749000I249999J0D01*
G01*
X122116001Y-106749000D01*
G75*
G02*
X122366000Y-106998999I0J-249999D01*
G01*
X122366000Y-107649001D01*
G75*
G02*
X122116001Y-107899000I-249999J0D01*
G01*
G37*
%TD*%
%TO.C,C104*%
G36*
G01*
X120633500Y-98837000D02*
X120158500Y-98837000D01*
G75*
G02*
X119921000Y-98599500I0J237500D01*
G01*
X119921000Y-98024500D01*
G75*
G02*
X120158500Y-97787000I237500J0D01*
G01*
X120633500Y-97787000D01*
G75*
G02*
X120871000Y-98024500I0J-237500D01*
G01*
X120871000Y-98599500D01*
G75*
G02*
X120633500Y-98837000I-237500J0D01*
G01*
G37*
G36*
G01*
X120633500Y-100587000D02*
X120158500Y-100587000D01*
G75*
G02*
X119921000Y-100349500I0J237500D01*
G01*
X119921000Y-99774500D01*
G75*
G02*
X120158500Y-99537000I237500J0D01*
G01*
X120633500Y-99537000D01*
G75*
G02*
X120871000Y-99774500I0J-237500D01*
G01*
X120871000Y-100349500D01*
G75*
G02*
X120633500Y-100587000I-237500J0D01*
G01*
G37*
%TD*%
%TO.C,C103*%
G36*
G01*
X113888000Y-98662500D02*
X113888000Y-98187500D01*
G75*
G02*
X114125500Y-97950000I237500J0D01*
G01*
X114700500Y-97950000D01*
G75*
G02*
X114938000Y-98187500I0J-237500D01*
G01*
X114938000Y-98662500D01*
G75*
G02*
X114700500Y-98900000I-237500J0D01*
G01*
X114125500Y-98900000D01*
G75*
G02*
X113888000Y-98662500I0J237500D01*
G01*
G37*
G36*
G01*
X112138000Y-98662500D02*
X112138000Y-98187500D01*
G75*
G02*
X112375500Y-97950000I237500J0D01*
G01*
X112950500Y-97950000D01*
G75*
G02*
X113188000Y-98187500I0J-237500D01*
G01*
X113188000Y-98662500D01*
G75*
G02*
X112950500Y-98900000I-237500J0D01*
G01*
X112375500Y-98900000D01*
G75*
G02*
X112138000Y-98662500I0J237500D01*
G01*
G37*
%TD*%
%TO.C,C102*%
G36*
G01*
X119871500Y-111537000D02*
X119396500Y-111537000D01*
G75*
G02*
X119159000Y-111299500I0J237500D01*
G01*
X119159000Y-110724500D01*
G75*
G02*
X119396500Y-110487000I237500J0D01*
G01*
X119871500Y-110487000D01*
G75*
G02*
X120109000Y-110724500I0J-237500D01*
G01*
X120109000Y-111299500D01*
G75*
G02*
X119871500Y-111537000I-237500J0D01*
G01*
G37*
G36*
G01*
X119871500Y-113287000D02*
X119396500Y-113287000D01*
G75*
G02*
X119159000Y-113049500I0J237500D01*
G01*
X119159000Y-112474500D01*
G75*
G02*
X119396500Y-112237000I237500J0D01*
G01*
X119871500Y-112237000D01*
G75*
G02*
X120109000Y-112474500I0J-237500D01*
G01*
X120109000Y-113049500D01*
G75*
G02*
X119871500Y-113287000I-237500J0D01*
G01*
G37*
%TD*%
%TO.C,C101*%
G36*
G01*
X113681500Y-112237000D02*
X114156500Y-112237000D01*
G75*
G02*
X114394000Y-112474500I0J-237500D01*
G01*
X114394000Y-113049500D01*
G75*
G02*
X114156500Y-113287000I-237500J0D01*
G01*
X113681500Y-113287000D01*
G75*
G02*
X113444000Y-113049500I0J237500D01*
G01*
X113444000Y-112474500D01*
G75*
G02*
X113681500Y-112237000I237500J0D01*
G01*
G37*
G36*
G01*
X113681500Y-110487000D02*
X114156500Y-110487000D01*
G75*
G02*
X114394000Y-110724500I0J-237500D01*
G01*
X114394000Y-111299500D01*
G75*
G02*
X114156500Y-111537000I-237500J0D01*
G01*
X113681500Y-111537000D01*
G75*
G02*
X113444000Y-111299500I0J237500D01*
G01*
X113444000Y-110724500D01*
G75*
G02*
X113681500Y-110487000I237500J0D01*
G01*
G37*
%TD*%
M02*
