%TF.GenerationSoftware,KiCad,Pcbnew,5.1.6+dfsg1-1~bpo10+1*%
%TF.CreationDate,2020-06-11T12:11:48-07:00*%
%TF.ProjectId,samd11d14_usb-c,73616d64-3131-4643-9134-5f7573622d63,rev?*%
%TF.SameCoordinates,Original*%
%TF.FileFunction,Legend,Bot*%
%TF.FilePolarity,Positive*%
%FSLAX46Y46*%
G04 Gerber Fmt 4.6, Leading zero omitted, Abs format (unit mm)*
G04 Created by KiCad (PCBNEW 5.1.6+dfsg1-1~bpo10+1) date 2020-06-11 12:11:48*
%MOMM*%
%LPD*%
G01*
G04 APERTURE LIST*
%ADD10C,0.254000*%
%ADD11C,0.120000*%
G04 APERTURE END LIST*
D10*
X115836095Y-95020190D02*
X115957047Y-95383047D01*
X115957047Y-95987809D01*
X115836095Y-96229714D01*
X115715142Y-96350666D01*
X115473238Y-96471619D01*
X115231333Y-96471619D01*
X114989428Y-96350666D01*
X114868476Y-96229714D01*
X114747523Y-95987809D01*
X114626571Y-95504000D01*
X114505619Y-95262095D01*
X114384666Y-95141142D01*
X114142761Y-95020190D01*
X113900857Y-95020190D01*
X113658952Y-95141142D01*
X113538000Y-95262095D01*
X113417047Y-95504000D01*
X113417047Y-96108761D01*
X113538000Y-96471619D01*
X115231333Y-97439238D02*
X115231333Y-98648761D01*
X115957047Y-97197333D02*
X113417047Y-98044000D01*
X115957047Y-98890666D01*
X115957047Y-99737333D02*
X113417047Y-99737333D01*
X115231333Y-100584000D01*
X113417047Y-101430666D01*
X115957047Y-101430666D01*
X115957047Y-102640190D02*
X113417047Y-102640190D01*
X113417047Y-103244952D01*
X113538000Y-103607809D01*
X113779904Y-103849714D01*
X114021809Y-103970666D01*
X114505619Y-104091619D01*
X114868476Y-104091619D01*
X115352285Y-103970666D01*
X115594190Y-103849714D01*
X115836095Y-103607809D01*
X115957047Y-103244952D01*
X115957047Y-102640190D01*
X115957047Y-106510666D02*
X115957047Y-105059238D01*
X115957047Y-105784952D02*
X113417047Y-105784952D01*
X113779904Y-105543047D01*
X114021809Y-105301142D01*
X114142761Y-105059238D01*
X115957047Y-108929714D02*
X115957047Y-107478285D01*
X115957047Y-108204000D02*
X113417047Y-108204000D01*
X113779904Y-107962095D01*
X114021809Y-107720190D01*
X114142761Y-107478285D01*
X115957047Y-110018285D02*
X113417047Y-110018285D01*
X113417047Y-110623047D01*
X113538000Y-110985904D01*
X113779904Y-111227809D01*
X114021809Y-111348761D01*
X114505619Y-111469714D01*
X114868476Y-111469714D01*
X115352285Y-111348761D01*
X115594190Y-111227809D01*
X115836095Y-110985904D01*
X115957047Y-110623047D01*
X115957047Y-110018285D01*
X115957047Y-113888761D02*
X115957047Y-112437333D01*
X115957047Y-113163047D02*
X113417047Y-113163047D01*
X113779904Y-112921142D01*
X114021809Y-112679238D01*
X114142761Y-112437333D01*
X114263714Y-116065904D02*
X115957047Y-116065904D01*
X113296095Y-115461142D02*
X115110380Y-114856380D01*
X115110380Y-116428761D01*
X118690571Y-98769714D02*
X118811523Y-99132571D01*
X118932476Y-99253523D01*
X119174380Y-99374476D01*
X119537238Y-99374476D01*
X119779142Y-99253523D01*
X119900095Y-99132571D01*
X120021047Y-98890666D01*
X120021047Y-97923047D01*
X117481047Y-97923047D01*
X117481047Y-98769714D01*
X117602000Y-99011619D01*
X117722952Y-99132571D01*
X117964857Y-99253523D01*
X118206761Y-99253523D01*
X118448666Y-99132571D01*
X118569619Y-99011619D01*
X118690571Y-98769714D01*
X118690571Y-97923047D01*
X120021047Y-100463047D02*
X118327714Y-100463047D01*
X118811523Y-100463047D02*
X118569619Y-100584000D01*
X118448666Y-100704952D01*
X118327714Y-100946857D01*
X118327714Y-101188761D01*
X119900095Y-103003047D02*
X120021047Y-102761142D01*
X120021047Y-102277333D01*
X119900095Y-102035428D01*
X119658190Y-101914476D01*
X118690571Y-101914476D01*
X118448666Y-102035428D01*
X118327714Y-102277333D01*
X118327714Y-102761142D01*
X118448666Y-103003047D01*
X118690571Y-103124000D01*
X118932476Y-103124000D01*
X119174380Y-101914476D01*
X120021047Y-105301142D02*
X118690571Y-105301142D01*
X118448666Y-105180190D01*
X118327714Y-104938285D01*
X118327714Y-104454476D01*
X118448666Y-104212571D01*
X119900095Y-105301142D02*
X120021047Y-105059238D01*
X120021047Y-104454476D01*
X119900095Y-104212571D01*
X119658190Y-104091619D01*
X119416285Y-104091619D01*
X119174380Y-104212571D01*
X119053428Y-104454476D01*
X119053428Y-105059238D01*
X118932476Y-105301142D01*
X120021047Y-106510666D02*
X117481047Y-106510666D01*
X119053428Y-106752571D02*
X120021047Y-107478285D01*
X118327714Y-107478285D02*
X119295333Y-106510666D01*
X120021047Y-108929714D02*
X119900095Y-108687809D01*
X119779142Y-108566857D01*
X119537238Y-108445904D01*
X118811523Y-108445904D01*
X118569619Y-108566857D01*
X118448666Y-108687809D01*
X118327714Y-108929714D01*
X118327714Y-109292571D01*
X118448666Y-109534476D01*
X118569619Y-109655428D01*
X118811523Y-109776380D01*
X119537238Y-109776380D01*
X119779142Y-109655428D01*
X119900095Y-109534476D01*
X120021047Y-109292571D01*
X120021047Y-108929714D01*
X118327714Y-111953523D02*
X120021047Y-111953523D01*
X118327714Y-110864952D02*
X119658190Y-110864952D01*
X119900095Y-110985904D01*
X120021047Y-111227809D01*
X120021047Y-111590666D01*
X119900095Y-111832571D01*
X119779142Y-111953523D01*
X118327714Y-112800190D02*
X118327714Y-113767809D01*
X117481047Y-113163047D02*
X119658190Y-113163047D01*
X119900095Y-113284000D01*
X120021047Y-113525904D01*
X120021047Y-113767809D01*
D11*
%TO.C,J103*%
X123130000Y-92650000D02*
X125790000Y-92650000D01*
X123130000Y-120650000D02*
X123130000Y-92650000D01*
X125790000Y-120650000D02*
X125790000Y-92650000D01*
X123130000Y-120650000D02*
X125790000Y-120650000D01*
X123130000Y-121920000D02*
X123130000Y-123250000D01*
X123130000Y-123250000D02*
X124460000Y-123250000D01*
%TO.C,J102*%
X110550000Y-123250000D02*
X107890000Y-123250000D01*
X110550000Y-95250000D02*
X110550000Y-123250000D01*
X107890000Y-95250000D02*
X107890000Y-123250000D01*
X110550000Y-95250000D02*
X107890000Y-95250000D01*
X110550000Y-93980000D02*
X110550000Y-92650000D01*
X110550000Y-92650000D02*
X109220000Y-92650000D01*
%TD*%
M02*
